<svg width="146" height="26" viewBox="0 0 146 26" fill="none" xmlns="http://www.w3.org/2000/svg">
<path d="M38.6368 24.5921H37.1387L36.8449 24.2982V23.8514H38.3788L37.5497 21.4358L36.0301 25.8775H35.127L37.0957 20.3344H38.0132L39.982 25.8775H39.0788L38.6392 24.5921H38.6368Z" fill="#999999"/>
<path d="M41.3781 25.9157H40.8572L40.4893 25.5478V20.3344H41.3781V25.9157Z" fill="#999999"/>
<path d="M43.2853 25.9157H42.7644L42.3965 25.5478V20.3344H43.2853V25.9157Z" fill="#999999"/>
<path d="M45.9229 24.8659C45.9229 24.5577 46.0184 24.3092 46.2167 24.1013C46.4079 23.903 46.6635 23.7644 46.9885 23.6904C47.268 23.6235 47.5547 23.5661 47.8319 23.5207C48.109 23.4753 48.3743 23.4323 48.6251 23.3726V23.3368C48.6251 23.2484 48.6108 23.16 48.5821 23.0715C48.5463 22.9903 48.4937 22.9162 48.4197 22.8517C48.3456 22.792 48.2428 22.7418 48.1258 22.6964C48.0015 22.6678 47.8534 22.6439 47.679 22.6439C47.4878 22.6439 47.2824 22.6725 47.0697 22.7323C46.8499 22.7992 46.6516 22.8947 46.4819 23.019L46.1666 22.35C46.3577 22.2186 46.5919 22.1087 46.8714 22.0203C47.1366 21.9319 47.4377 21.8889 47.7602 21.8889C48.1043 21.8889 48.391 21.939 48.6275 22.0274C48.8473 22.1302 49.0313 22.2544 49.1699 22.4097C49.3013 22.5722 49.3897 22.7466 49.4494 22.9377C49.502 23.1361 49.5307 23.3344 49.5307 23.5327V25.9124H48.9214L48.6275 25.6185V25.4632C48.5391 25.5588 48.4435 25.64 48.3408 25.7141C48.2237 25.7738 48.1138 25.8312 47.9968 25.8766C47.8725 25.9124 47.7483 25.9435 47.6288 25.965C47.4974 25.9793 47.3803 25.9865 47.2752 25.9865C47.041 25.9865 46.8356 25.9578 46.6659 25.8981C46.4891 25.8312 46.3505 25.7523 46.2478 25.6496C46.1307 25.5397 46.0495 25.4154 46.0065 25.2816C45.9467 25.1502 45.9252 25.0093 45.9252 24.8635L45.9229 24.8659ZM48.5869 24.7202C48.6084 24.6533 48.6227 24.5887 48.6227 24.529V24.0583L47.9179 24.1969C47.6838 24.2399 47.4926 24.2781 47.3373 24.2996C47.1605 24.3283 47.0363 24.3952 46.9479 24.4836C46.8595 24.5792 46.8164 24.6891 46.8164 24.8205C46.8164 24.9686 46.869 25.0786 46.9717 25.167C47.0745 25.2554 47.237 25.2984 47.4639 25.2984C47.581 25.2984 47.7053 25.284 47.8391 25.2482C47.9561 25.2195 48.0732 25.1741 48.1759 25.1168C48.2787 25.0666 48.3671 25.0069 48.4412 24.9328C48.5152 24.8659 48.5582 24.7942 48.5869 24.7202Z" fill="#999999"/>
<path d="M51.221 20.3391V22.284C51.3524 22.1454 51.5292 22.0355 51.7347 21.9615C51.9401 21.8946 52.1313 21.8587 52.3081 21.8587C52.5566 21.8587 52.8003 21.9089 53.0201 21.9973C53.2399 22.1 53.4311 22.2315 53.5935 22.4083C53.756 22.5922 53.8802 22.8049 53.9758 23.0534C54.0642 23.3114 54.1144 23.5886 54.1144 23.8968C54.1144 24.2504 54.0618 24.5586 53.9591 24.8214C53.8564 25.0866 53.7178 25.3065 53.5553 25.4761C53.3785 25.6457 53.1874 25.7772 52.9747 25.8656C52.7549 25.9468 52.5279 25.9898 52.3057 25.9898C52.1217 25.9898 51.9378 25.954 51.7466 25.8871C51.5483 25.813 51.3715 25.6887 51.2186 25.5119V25.9157H50.7192L50.3154 25.5119V20.3344H51.2186L51.221 20.3391ZM51.221 24.2886C51.221 24.42 51.2425 24.5467 51.295 24.6637C51.338 24.7808 51.4049 24.8836 51.4933 24.972C51.5746 25.0604 51.6773 25.1344 51.7944 25.1774C51.9043 25.2372 52.0285 25.2587 52.1767 25.2587C52.4992 25.2587 52.7573 25.1416 52.9341 24.8907C53.1109 24.6494 53.1993 24.3173 53.1993 23.8992C53.1993 23.7224 53.1778 23.5456 53.1467 23.3855C53.1109 23.2302 53.0512 23.0916 52.9771 22.9745C52.8959 22.8574 52.7931 22.769 52.6689 22.695C52.5375 22.6281 52.375 22.5922 52.191 22.5922C52.0524 22.5922 51.9258 22.6209 51.8087 22.6806C51.6917 22.7404 51.5889 22.8192 51.5005 22.9148C51.4121 23.0175 51.338 23.1346 51.295 23.2588C51.2425 23.3903 51.221 23.5169 51.221 23.6483V24.2862V24.2886Z" fill="#999999"/>
<path d="M58.4545 23.9365C58.4545 24.2901 58.4043 24.5911 58.2992 24.8396C58.1964 25.0977 58.0578 25.3103 57.881 25.4776C57.7042 25.6472 57.4987 25.7714 57.2646 25.8598C57.0233 25.9411 56.7652 25.9841 56.4929 25.9841C56.2205 25.9841 55.9648 25.9411 55.7283 25.8598C55.487 25.7714 55.2815 25.6472 55.1047 25.4776C54.9279 25.3079 54.7893 25.0953 54.6866 24.8396C54.5838 24.5911 54.5312 24.2901 54.5312 23.9365C54.5312 23.5829 54.5838 23.2985 54.6866 23.0333C54.7893 22.7848 54.9279 22.5698 55.1047 22.3954C55.2815 22.2257 55.487 22.1015 55.7283 22.0131C55.9624 21.9319 56.2133 21.8889 56.4929 21.8889C56.7724 21.8889 57.0209 21.9319 57.2646 22.0131C57.4987 22.1015 57.7042 22.2257 57.881 22.3954C58.0578 22.5722 58.1964 22.7848 58.2992 23.0333C58.4019 23.2985 58.4545 23.5996 58.4545 23.9365ZM57.5585 23.9365C57.5585 23.7453 57.537 23.5685 57.4916 23.4084C57.4486 23.246 57.3817 23.1074 57.2933 22.9903C57.1977 22.8732 57.0878 22.7848 56.9564 22.7108C56.825 22.651 56.6697 22.6152 56.4929 22.6152C56.316 22.6152 56.1631 22.651 56.0293 22.7108C55.8979 22.7848 55.788 22.8732 55.6996 22.9903C55.604 23.1074 55.5371 23.2484 55.4941 23.4084C55.4511 23.5709 55.4272 23.7453 55.4272 23.9365C55.4272 24.1276 55.4487 24.3044 55.4941 24.4645C55.5371 24.627 55.604 24.7656 55.6996 24.8826C55.788 24.9997 55.8979 25.0953 56.0293 25.155C56.1607 25.2291 56.316 25.2578 56.4929 25.2578C56.6697 25.2578 56.8226 25.2291 56.9564 25.155C57.0878 25.0953 57.1977 24.9997 57.2933 24.8826C57.3817 24.7656 57.4486 24.6246 57.4916 24.4645C57.5346 24.302 57.5585 24.1276 57.5585 23.9365Z" fill="#999999"/>
<path d="M60.049 24.5425C60.049 24.7624 60.1015 24.9392 60.2186 25.0562C60.3285 25.1877 60.4982 25.2474 60.7251 25.2474C60.835 25.2474 60.945 25.2259 61.062 25.1733C61.1719 25.1303 61.2747 25.0706 61.3774 24.9893C61.473 24.9153 61.5614 24.834 61.6426 24.7313C61.7167 24.6357 61.7812 24.533 61.8266 24.4231V21.9621H62.7154V25.9116H62.1205L61.8266 25.6177V25.4409C61.657 25.6464 61.4658 25.785 61.2532 25.8734C61.0334 25.9474 60.8279 25.9905 60.6511 25.9905C60.4098 25.9905 60.1947 25.9546 60.0203 25.8877C59.8292 25.8136 59.6762 25.7109 59.5496 25.5938C59.4182 25.4624 59.3226 25.3143 59.2629 25.1375C59.1888 24.9678 59.1602 24.7839 59.1602 24.5784V21.9573H60.049V24.5354V24.5425Z" fill="#999999"/>
<path d="M64.7392 20.3344V21.9638H65.6065V22.6687H64.7392V24.7545C64.7392 24.9385 64.7607 25.0699 64.8061 25.1512C64.8419 25.2396 64.9518 25.2754 65.1286 25.2754C65.26 25.2754 65.4225 25.2611 65.6136 25.2252L65.6805 25.8632C65.628 25.8775 65.5706 25.899 65.5037 25.9157L65.2839 25.9587C65.2027 25.9659 65.1286 25.9731 65.0641 25.9802C64.99 25.9802 64.9255 25.9874 64.8801 25.9874C64.6747 25.9802 64.5122 25.9516 64.3808 25.899C64.2494 25.8393 64.1395 25.7676 64.0654 25.6792C63.9841 25.5836 63.934 25.4809 63.9029 25.3638C63.8671 25.2467 63.8504 25.1129 63.8504 24.9672V22.6687H63.4394L63.1455 22.3748V21.9638H63.8504V20.3344H64.7392Z" fill="#999999"/>
<path d="M71.6906 20.3344V25.9157H71.0813L70.7874 25.6218V25.5119C70.6249 25.6887 70.4577 25.813 70.2665 25.8871C70.0682 25.954 69.8771 25.9898 69.7003 25.9898C69.4661 25.9898 69.2439 25.9468 69.0313 25.8655C68.8115 25.7771 68.6203 25.6457 68.4579 25.4761C68.2811 25.3065 68.1496 25.0866 68.0469 24.8214C67.9442 24.5562 67.8916 24.248 67.8916 23.8968C67.8916 23.5886 67.9346 23.309 68.0302 23.0534C68.1186 22.8025 68.25 22.5898 68.4125 22.4083C68.5749 22.2314 68.7661 22.1 68.9859 21.9973C69.2057 21.9089 69.4422 21.8587 69.6979 21.8587C69.7863 21.8587 69.8747 21.8659 69.9774 21.8802C70.073 21.9017 70.1686 21.9304 70.2713 21.9615C70.3597 22.0045 70.4553 22.0499 70.5509 22.0929C70.6393 22.1526 70.7133 22.2099 70.785 22.284V20.3391H71.6882L71.6906 20.3344ZM70.7898 23.6459C70.7898 23.5145 70.7611 23.3879 70.7157 23.2564C70.6656 23.1322 70.5987 23.0151 70.5103 22.9124C70.4219 22.8168 70.3191 22.7356 70.202 22.6782C70.085 22.6209 69.9512 22.5898 69.8198 22.5898C69.6286 22.5898 69.4757 22.6257 69.3491 22.6926C69.2177 22.7666 69.1077 22.855 69.0337 22.9721C68.9524 23.0892 68.8951 23.2302 68.864 23.3831C68.8282 23.5455 68.8115 23.72 68.8115 23.8968C68.8115 24.3149 68.8999 24.6446 69.0767 24.8883C69.2535 25.1368 69.502 25.2563 69.8317 25.2563C69.9631 25.2563 70.0969 25.2348 70.214 25.175C70.3311 25.132 70.4338 25.058 70.5222 24.9696C70.6034 24.8812 70.668 24.7784 70.7205 24.6613C70.7635 24.5443 70.7874 24.42 70.7874 24.2862V23.6483L70.7898 23.6459Z" fill="#999999"/>
<path d="M72.3457 24.8659C72.3457 24.5577 72.4413 24.3092 72.6396 24.1013C72.8307 23.903 73.0864 23.7644 73.4113 23.6904C73.6909 23.6235 73.9776 23.5661 74.2547 23.5207C74.5319 23.4753 74.7971 23.4323 75.048 23.3726V23.3368C75.048 23.2484 75.0337 23.16 75.005 23.0715C74.9691 22.9903 74.9166 22.9162 74.8425 22.8517C74.7684 22.792 74.6657 22.7418 74.5486 22.6964C74.4244 22.6678 74.2762 22.6439 74.1018 22.6439C73.9107 22.6439 73.7052 22.6725 73.4926 22.7323C73.2727 22.7992 73.0744 22.8947 72.9048 23.019L72.5894 22.35C72.7806 22.2186 73.0147 22.1087 73.2943 22.0203C73.5595 21.9319 73.8605 21.8889 74.1831 21.8889C74.5271 21.8889 74.8138 21.939 75.0504 22.0274C75.2702 22.1302 75.4542 22.2544 75.5927 22.4097C75.7242 22.5722 75.8126 22.7466 75.8723 22.9377C75.9249 23.1361 75.9535 23.3344 75.9535 23.5327V25.9124H75.3443L75.0504 25.6185V25.4632C74.962 25.5588 74.8664 25.64 74.7637 25.7141C74.6466 25.7738 74.5367 25.8312 74.4196 25.8766C74.2954 25.9124 74.1711 25.9435 74.0517 25.965C73.9202 25.9793 73.8032 25.9865 73.698 25.9865C73.4639 25.9865 73.2584 25.9578 73.0888 25.8981C72.912 25.8312 72.7734 25.7523 72.6706 25.6496C72.5536 25.5397 72.4723 25.4154 72.4293 25.2816C72.3696 25.1502 72.3481 25.0093 72.3481 24.8635L72.3457 24.8659ZM75.0098 24.7202C75.0313 24.6533 75.0456 24.5887 75.0456 24.529V24.0583L74.3408 24.1969C74.1066 24.2399 73.9155 24.2781 73.7602 24.2996C73.5834 24.3283 73.4591 24.3952 73.3707 24.4836C73.2823 24.5792 73.2393 24.6891 73.2393 24.8205C73.2393 24.9686 73.2919 25.0786 73.3946 25.167C73.4973 25.2554 73.6598 25.2984 73.8868 25.2984C74.0039 25.2984 74.1281 25.284 74.2619 25.2482C74.379 25.2195 74.4961 25.1741 74.5988 25.1168C74.7015 25.0666 74.7899 25.0069 74.864 24.9328C74.9381 24.8659 74.9811 24.7942 75.0098 24.7202Z" fill="#999999"/>
<path d="M77.937 20.3344V21.9638H78.8043V22.6687H77.937V24.7545C77.937 24.9385 77.9585 25.0699 78.0039 25.1512C78.0397 25.2396 78.1496 25.2754 78.3264 25.2754C78.4578 25.2754 78.6203 25.2611 78.8114 25.2252L78.8783 25.8632C78.8258 25.8775 78.7684 25.899 78.7015 25.9157L78.4817 25.9587C78.4005 25.9659 78.3264 25.9731 78.2619 25.9802C78.1878 25.9802 78.1233 25.9874 78.0779 25.9874C77.8725 25.9802 77.71 25.9516 77.5786 25.899C77.4472 25.8393 77.3373 25.7676 77.2632 25.6792C77.182 25.5836 77.1318 25.4809 77.1007 25.3638C77.0649 25.2467 77.0505 25.1129 77.0505 24.9672V22.6687H76.6396L76.3457 22.3748V21.9638H77.0505V20.3344H77.9394H77.937Z" fill="#999999"/>
<path d="M79.2041 24.8659C79.2041 24.5577 79.2997 24.3092 79.498 24.1013C79.6891 23.903 79.9448 23.7644 80.2697 23.6904C80.5493 23.6235 80.836 23.5661 81.1131 23.5207C81.3903 23.4753 81.6555 23.4323 81.9064 23.3726V23.3368C81.9064 23.2484 81.892 23.16 81.8634 23.0715C81.8275 22.9903 81.775 22.9162 81.7009 22.8517C81.6268 22.792 81.5241 22.7418 81.407 22.6964C81.2828 22.6678 81.1346 22.6439 80.9602 22.6439C80.7691 22.6439 80.5636 22.6725 80.351 22.7323C80.1311 22.7992 79.9328 22.8947 79.7632 23.019L79.4478 22.35C79.6389 22.2186 79.8731 22.1087 80.1526 22.0203C80.4179 21.9319 80.7189 21.8889 81.0415 21.8889C81.3855 21.8889 81.6722 21.939 81.9088 22.0274C82.1286 22.1302 82.3126 22.2544 82.4511 22.4097C82.5826 22.5722 82.671 22.7466 82.7307 22.9377C82.7832 23.1361 82.8119 23.3344 82.8119 23.5327V25.9124H82.2027L81.9088 25.6185V25.4632C81.8204 25.5588 81.7248 25.64 81.6221 25.7141C81.505 25.7738 81.3951 25.8312 81.278 25.8766C81.1538 25.9124 81.0271 25.9435 80.91 25.965C80.7786 25.9793 80.6592 25.9865 80.5564 25.9865C80.3223 25.9865 80.1168 25.9578 79.9472 25.8981C79.7704 25.8312 79.6318 25.7523 79.529 25.6496C79.412 25.5397 79.3307 25.4154 79.2877 25.2816C79.228 25.1502 79.2065 25.0093 79.2065 24.8635L79.2041 24.8659ZM81.8682 24.7202C81.8897 24.6533 81.904 24.5887 81.904 24.529V24.0583L81.1992 24.1969C80.965 24.2399 80.7739 24.2781 80.6186 24.2996C80.4417 24.3283 80.3175 24.3952 80.2291 24.4836C80.1407 24.5792 80.0977 24.6891 80.0977 24.8205C80.0977 24.9686 80.1479 25.0786 80.253 25.167C80.3557 25.2554 80.5182 25.2984 80.7452 25.2984C80.8623 25.2984 80.9865 25.284 81.1203 25.2482C81.2374 25.2195 81.3545 25.1741 81.4572 25.1168C81.5599 25.0666 81.6483 25.0069 81.7224 24.9328C81.7965 24.8659 81.8395 24.7942 81.8682 24.7202Z" fill="#999999"/>
<path d="M88.6602 25.4892C88.4691 25.6445 88.2564 25.7687 88.0223 25.8571C87.7738 25.9384 87.5014 25.9814 87.1932 25.9814C86.9519 25.9814 86.7153 25.9527 86.4955 25.893C86.2614 25.8332 86.0631 25.7448 85.8863 25.6278C85.7095 25.5035 85.5709 25.3482 85.4681 25.1571C85.3582 24.9659 85.3057 24.7389 85.3057 24.4737C85.3057 24.0771 85.4084 23.7474 85.6139 23.475C85.8194 23.2098 86.0917 22.9828 86.4358 22.7917C86.3259 22.6435 86.2375 22.505 86.1778 22.3807C86.1109 22.2636 86.0678 22.1466 86.0392 22.0438C86.0033 21.9483 85.9794 21.8599 85.9794 21.7786C85.9651 21.7045 85.9651 21.6305 85.9651 21.5588C85.9651 21.339 86.0009 21.1407 86.0893 20.971C86.1706 20.8086 86.2805 20.6772 86.4191 20.5673C86.5505 20.4645 86.7058 20.3833 86.8826 20.3331C87.0451 20.2901 87.2195 20.259 87.3963 20.259C87.5874 20.259 87.7642 20.2877 87.9315 20.3403C88.094 20.4 88.2325 20.4717 88.3568 20.5744C88.4739 20.6772 88.5766 20.8086 88.6507 20.9567C88.7176 21.112 88.7534 21.2864 88.7534 21.4776C88.7534 21.6544 88.7176 21.8073 88.6578 21.9411C88.5838 22.0892 88.4954 22.2206 88.3926 22.3377C88.2756 22.462 88.1513 22.579 88.0103 22.6818C87.8646 22.7917 87.7165 22.8944 87.5635 22.99L88.6053 24.2372C88.665 24.0747 88.7152 23.9075 88.751 23.7235C88.7797 23.5467 88.794 23.3794 88.8108 23.2026H89.6112C89.5897 23.5109 89.5443 23.8119 89.4797 24.0986C89.4057 24.3925 89.2958 24.6649 89.1572 24.899L89.905 25.8022H88.9135L88.6554 25.4868L88.6602 25.4892ZM87.1765 25.2622C87.3891 25.2622 87.5803 25.2335 87.7427 25.1666C87.9052 25.1069 88.0438 25.0185 88.168 24.9014L86.9208 23.3962C86.7082 23.5276 86.5314 23.6757 86.3856 23.8358C86.2303 23.9983 86.1586 24.1966 86.1586 24.4307C86.1586 24.586 86.1873 24.7103 86.2542 24.813C86.3139 24.9229 86.3856 25.0113 86.4884 25.0711C86.5839 25.1451 86.6938 25.1881 86.8181 25.2168C86.9352 25.2455 87.0522 25.2598 87.1789 25.2598L87.1765 25.2622ZM86.8014 21.5254C86.8014 21.6878 86.83 21.8407 86.8969 22.0032C86.9567 22.1657 87.0355 22.3114 87.1239 22.4428C87.3581 22.3114 87.5492 22.1561 87.7045 21.9865C87.8526 21.824 87.9315 21.6639 87.9315 21.4871C87.9315 21.3103 87.8789 21.1789 87.7762 21.0905C87.6734 21.0021 87.542 20.9591 87.3867 20.9591C87.2099 20.9591 87.0714 21.0093 86.9686 21.0977C86.8515 21.1932 86.799 21.3318 86.799 21.523L86.8014 21.5254Z" fill="#999999"/>
<path d="M95.6204 25.7374C95.4961 25.7971 95.3193 25.8473 95.0995 25.907C94.8654 25.9596 94.6145 25.9883 94.3517 25.9883C94.0434 25.9883 93.7639 25.9381 93.5082 25.8497C93.243 25.7541 93.0089 25.6227 92.8177 25.4459C92.6194 25.2691 92.4641 25.0564 92.3542 24.808C92.2371 24.5595 92.1846 24.2799 92.1846 23.9574C92.1846 23.6348 92.2371 23.3624 92.347 23.1068C92.4498 22.8559 92.5979 22.6361 92.7938 22.4521C92.985 22.2753 93.212 22.1439 93.4915 22.0412C93.7567 21.9528 94.0578 21.9026 94.3875 21.9026C94.4902 21.9026 94.6001 21.9098 94.7172 21.9169L95.0613 21.9599C95.1712 21.9886 95.2739 22.0101 95.3767 22.0412C95.4651 22.0698 95.5463 22.1081 95.6036 22.1367L95.4053 22.8488C95.2739 22.789 95.1186 22.746 94.9346 22.7006C94.7435 22.6648 94.5595 22.6409 94.3851 22.6409C94.194 22.6409 94.0172 22.6696 93.8642 22.7293C93.7018 22.789 93.5704 22.875 93.4604 22.9778C93.3434 23.0948 93.2478 23.2263 93.1881 23.3816C93.1212 23.544 93.0925 23.728 93.0925 23.9168C93.0925 24.1366 93.1283 24.3206 93.2096 24.483C93.2836 24.6527 93.3864 24.7912 93.5178 24.9011C93.642 25.0182 93.7902 25.0995 93.9503 25.1496C94.1127 25.2094 94.2728 25.238 94.4424 25.238C94.6264 25.238 94.8104 25.2165 94.992 25.1711C95.1688 25.1281 95.3217 25.0827 95.4555 25.023L95.618 25.735L95.6204 25.7374Z" fill="#999999"/>
<path d="M97.0656 25.9157H96.5447L96.1768 25.5478V20.3344H97.0656V25.9157Z" fill="#999999"/>
<path d="M101.727 23.9365C101.727 24.2901 101.674 24.5911 101.572 24.8396C101.469 25.0977 101.33 25.3103 101.153 25.4776C100.977 25.6472 100.771 25.7714 100.537 25.8598C100.296 25.9411 100.038 25.9841 99.7653 25.9841C99.4929 25.9841 99.2373 25.9411 99.0007 25.8598C98.7594 25.7714 98.554 25.6472 98.3771 25.4776C98.2003 25.3079 98.0618 25.0953 97.959 24.8396C97.8563 24.5911 97.8037 24.2901 97.8037 23.9365C97.8037 23.5829 97.8539 23.2985 97.959 23.0333C98.0618 22.7848 98.2003 22.5698 98.3771 22.3954C98.554 22.2257 98.7594 22.1015 99.0007 22.0131C99.2349 21.9319 99.4858 21.8889 99.7653 21.8889C100.045 21.8889 100.293 21.9319 100.537 22.0131C100.771 22.1015 100.977 22.2257 101.153 22.3954C101.33 22.5722 101.469 22.7848 101.572 23.0333C101.674 23.2985 101.727 23.5996 101.727 23.9365ZM100.833 23.9365C100.833 23.7453 100.812 23.5685 100.766 23.4084C100.723 23.246 100.657 23.1074 100.568 22.9903C100.473 22.8732 100.363 22.7848 100.231 22.7108C100.1 22.651 99.9445 22.6152 99.7677 22.6152C99.5909 22.6152 99.438 22.651 99.3042 22.7108C99.1728 22.7848 99.0629 22.8732 98.9745 22.9903C98.8789 23.1074 98.812 23.2484 98.769 23.4084C98.726 23.5709 98.7021 23.7453 98.7021 23.9365C98.7021 24.1276 98.7236 24.3044 98.769 24.4645C98.812 24.627 98.8789 24.7656 98.9745 24.8826C99.0629 24.9997 99.1728 25.0953 99.3042 25.155C99.4356 25.2291 99.5909 25.2578 99.7677 25.2578C99.9445 25.2578 100.097 25.2291 100.231 25.155C100.363 25.0953 100.473 24.9997 100.568 24.8826C100.657 24.7656 100.723 24.6246 100.766 24.4645C100.809 24.302 100.833 24.1276 100.833 23.9365Z" fill="#999999"/>
<path d="M103.321 24.5425C103.321 24.7624 103.374 24.9392 103.491 25.0562C103.601 25.1877 103.771 25.2474 103.998 25.2474C104.108 25.2474 104.217 25.2259 104.334 25.1733C104.444 25.1303 104.547 25.0706 104.65 24.9893C104.745 24.9153 104.834 24.834 104.915 24.7313C104.989 24.6357 105.054 24.533 105.099 24.4231V21.9621H105.988V25.9116H105.393L105.099 25.6177V25.4409C104.929 25.6464 104.738 25.785 104.526 25.8734C104.306 25.9474 104.1 25.9905 103.924 25.9905C103.682 25.9905 103.467 25.9546 103.293 25.8877C103.102 25.8136 102.949 25.7109 102.822 25.5938C102.691 25.4624 102.595 25.3143 102.535 25.1375C102.461 24.9678 102.433 24.7839 102.433 24.5784V21.9573H103.321V24.5354V24.5425Z" fill="#999999"/>
<path d="M110.382 20.3344V25.9157H109.773L109.479 25.6218V25.5119C109.316 25.6887 109.149 25.813 108.958 25.8871C108.76 25.954 108.569 25.9898 108.392 25.9898C108.158 25.9898 107.935 25.9468 107.723 25.8655C107.503 25.7771 107.312 25.6457 107.149 25.4761C106.972 25.3065 106.841 25.0866 106.738 24.8214C106.636 24.5562 106.583 24.248 106.583 23.8968C106.583 23.5886 106.626 23.309 106.722 23.0534C106.81 22.8025 106.941 22.5898 107.104 22.4083C107.266 22.2314 107.457 22.1 107.677 21.9973C107.897 21.9089 108.134 21.8587 108.389 21.8587C108.478 21.8587 108.566 21.8659 108.669 21.8802C108.764 21.9017 108.86 21.9304 108.963 21.9615C109.051 22.0045 109.147 22.0499 109.242 22.0929C109.331 22.1526 109.405 22.2099 109.476 22.284V20.3391H110.38L110.382 20.3344ZM109.479 23.6459C109.479 23.5145 109.45 23.3879 109.405 23.2564C109.355 23.1322 109.288 23.0151 109.199 22.9124C109.111 22.8168 109.008 22.7356 108.891 22.6782C108.774 22.6209 108.64 22.5898 108.509 22.5898C108.318 22.5898 108.165 22.6257 108.038 22.6926C107.907 22.7666 107.797 22.855 107.723 22.9721C107.641 23.0892 107.584 23.2302 107.553 23.3831C107.517 23.5455 107.501 23.72 107.501 23.8968C107.501 24.3149 107.589 24.6446 107.766 24.8883C107.943 25.1368 108.191 25.2563 108.521 25.2563C108.652 25.2563 108.786 25.2348 108.903 25.175C109.02 25.132 109.123 25.058 109.211 24.9696C109.292 24.8812 109.357 24.7784 109.41 24.6613C109.453 24.5443 109.476 24.42 109.476 24.2862V23.6483L109.479 23.6459Z" fill="#999999"/>
<path fill-rule="evenodd" clip-rule="evenodd" d="M37.7358 10.419V0.0303345H35.3154V11.4296C35.3154 11.7474 35.4421 12.0461 35.669 12.273C35.9056 12.5096 36.2162 12.641 36.5602 12.641H47.4124L48.834 10.4166H37.7358V10.419Z" fill="#999999"/>
<path fill-rule="evenodd" clip-rule="evenodd" d="M19.1953 0.0303345V12.641H21.6085V12.629L29.1204 12.641C31.3377 12.512 33.2109 11.6064 33.3757 9.34378C33.4689 8.02967 32.7354 6.98078 31.6578 6.31416C32.7617 5.73835 33.5693 4.73246 33.3829 3.32039C33.101 1.18675 31.2397 0.159358 29.0272 0.0327261H19.1977L19.1953 0.0303345ZM28.8576 2.24998C29.9829 2.24998 31.0103 2.81625 31.0103 3.74329C31.0103 4.82564 29.6508 5.1243 28.5279 5.1243H23.0325L21.6682 7.29855H28.934C30.0307 7.32961 31.0103 8.00339 31.0103 8.91849C31.0103 9.83358 30.0761 10.4118 28.9532 10.4118H21.6061V2.24998H28.8552H28.8576Z" fill="#999999"/>
<path fill-rule="evenodd" clip-rule="evenodd" d="M63.0766 5.2691L61.7052 7.38123H51.7705L53.0966 5.2691H63.0766Z" fill="#999999"/>
<path fill-rule="evenodd" clip-rule="evenodd" d="M55.6001 10.4211C54.059 10.4211 52.7162 9.55615 52.0281 8.28983C51.9946 8.2301 51.9636 8.16797 51.9349 8.10585C51.9205 8.07718 51.9086 8.04612 51.8943 8.01745C51.8584 7.9386 51.825 7.85737 51.7915 7.77374C51.7915 7.77374 51.7915 7.76897 51.7915 7.76658C51.6219 7.32217 51.5311 6.84192 51.5311 6.33778C51.5311 5.73807 51.6625 5.16942 51.8967 4.65572C51.9062 4.63183 51.9182 4.60794 51.9301 4.58165C51.9636 4.51236 51.997 4.44546 52.0328 4.38095C52.0615 4.32839 52.0902 4.27822 52.1212 4.22804C52.1212 4.22326 52.126 4.21848 52.1308 4.2137C52.8141 3.09551 54.0183 2.33094 55.4065 2.26643C55.428 2.26643 55.4495 2.26643 55.471 2.26643C55.514 2.26404 55.557 2.25927 55.6001 2.25927H63.0666L64.4906 0.0372314H55.4328C51.9659 0.0372314 49.1514 2.85898 49.1514 6.34256C49.1514 9.82614 51.9659 12.6479 55.4328 12.6479H63.0666L64.4906 10.4235H55.6001V10.4211Z" fill="#999999"/>
<path fill-rule="evenodd" clip-rule="evenodd" d="M14.6941 12.641H17.5541L10.25 0.790133C9.9251 0.312276 9.37556 0.0303345 8.77824 0.0303345C8.18092 0.0303345 7.61227 0.302719 7.28732 0.790133L0 12.641H2.85042L4.43929 10.0199H10.1067L11.5976 7.64738H5.86809L8.78302 2.81147L14.6965 12.6434L14.6941 12.641Z" fill="#999999"/>
<path fill-rule="evenodd" clip-rule="evenodd" d="M71.4946 10.3936C69.9535 10.3936 68.6107 9.52869 67.9226 8.26237C67.8892 8.20263 67.8581 8.14051 67.8294 8.07839C67.8151 8.04972 67.8031 8.01866 67.7888 7.98999C67.753 7.91114 67.7195 7.8299 67.6861 7.74628C67.6861 7.74628 67.6861 7.7415 67.6861 7.73911C67.5164 7.2947 67.4256 6.81446 67.4256 6.31032C67.4256 5.71061 67.557 5.14196 67.7912 4.62826C67.8008 4.60437 67.8127 4.58048 67.8246 4.55419C67.8581 4.48491 67.8915 4.41801 67.9274 4.3535C67.956 4.30093 67.9847 4.25075 68.0158 4.20058C68.0158 4.1958 68.0206 4.19102 68.0253 4.18624C68.7087 3.06806 69.9129 2.30349 71.3011 2.23897C71.3226 2.23897 71.3441 2.23897 71.3656 2.23897C71.4086 2.23659 71.4516 2.23181 71.4946 2.23181H78.9611L80.3851 0.00976562H71.3273C67.8605 0.00976562 65.0459 2.83152 65.0459 6.3151C65.0459 9.79868 67.8605 12.6204 71.3273 12.6204H78.9611L80.3851 10.396H71.4946V10.3936Z" fill="#999999"/>
<path fill-rule="evenodd" clip-rule="evenodd" d="M84.2299 10.5628V0.174133H81.8096V11.5734C81.8096 11.8912 81.9362 12.1899 82.1632 12.4168C82.3997 12.6534 82.7103 12.7848 83.0544 12.7848H93.9065L95.3282 10.5604H84.2299V10.5628Z" fill="#999999"/>
<path d="M129.233 0.085083H131.223V7.0188C131.223 7.97451 131.106 8.80838 130.87 9.52038C130.633 10.2324 130.265 10.8202 129.761 11.2885C129.257 11.7544 128.607 12.1032 127.811 12.3302C127.013 12.5572 126.048 12.6719 124.915 12.6719C123.783 12.6719 122.832 12.5572 122.034 12.3302C121.236 12.1032 120.586 11.7544 120.084 11.2885C119.58 10.8225 119.212 10.2324 118.976 9.52038C118.739 8.80838 118.622 7.97451 118.622 7.0188V0.085083H120.725V7.0188C120.725 7.64479 120.796 8.17999 120.942 8.6244C121.085 9.06881 121.322 9.43198 121.649 9.71631C121.977 10.0006 122.411 10.2085 122.956 10.3399C123.501 10.4713 124.175 10.5358 124.978 10.5358C125.78 10.5358 126.454 10.4713 126.999 10.3399C127.544 10.2085 127.981 10.0006 128.306 9.71631C128.633 9.43198 128.867 9.06642 129.013 8.6244C129.156 8.17999 129.231 7.64479 129.231 7.0188V0.085083H129.233Z" fill="#999999"/>
<path d="M133.067 12.5022V0.085083H139.824C140.649 0.085083 141.408 0.233223 142.104 0.529494C142.799 0.825766 143.399 1.2415 143.9 1.7767C144.402 2.3119 144.796 2.95223 145.081 3.69769C145.365 4.44315 145.506 5.26745 145.506 6.16582C145.506 7.06419 145.365 7.90284 145.081 8.67696C144.796 9.45109 144.405 10.1201 143.9 10.684C143.396 11.2478 142.799 11.6922 142.104 12.0172C141.408 12.3421 140.649 12.5046 139.824 12.5046H133.067V12.5022ZM139.824 10.3327C140.348 10.3327 140.833 10.23 141.277 10.0245C141.721 9.81904 142.106 9.53711 142.433 9.17872C142.761 8.82032 143.014 8.39025 143.196 7.8885C143.377 7.38674 143.468 6.84677 143.468 6.26617C143.468 5.68558 143.377 5.14799 143.196 4.65101C143.014 4.15643 142.758 3.73113 142.433 3.37752C142.106 3.02391 141.721 2.74914 141.277 2.54844C140.833 2.35013 140.348 2.24978 139.824 2.24978H135.089V10.328H139.824V10.3327Z" fill="#999999"/>
<path d="M113.056 4.88236C112.277 2.40228 110 0.60553 107.31 0.60553C104.62 0.60553 102.343 2.39989 101.564 4.87997C101.322 4.85608 101.076 4.85129 100.826 4.87041C98.4721 5.03766 96.6873 6.99449 96.8402 9.24281C96.9835 11.3502 98.7779 12.9677 100.943 13.0227C100.955 13.0227 100.964 13.0227 100.976 13.0227L100.969 13.0322L106.992 12.9104L112.762 13.0274L112.755 13.0179C112.755 13.0179 112.777 13.0179 112.789 13.0179C114.951 12.9605 116.748 11.3454 116.891 9.23803C117.042 7.03749 115.333 5.12129 113.054 4.88236H113.056Z" fill="#999999"/>
</svg>
