<svg width="100%" height="100%" viewBox="0 0 250 30" fill="none" xmlns="http://www.w3.org/2000/svg">
<path d="M188.939 3.05313C188.939 1.36693 190.306 0 191.992 0H246.947C248.633 0 250 1.36693 250 3.05312V26.2569C250 27.9431 248.633 29.31 246.947 29.31H191.992C190.306 29.31 188.939 27.9431 188.939 26.2569V3.05313Z" fill="#343434"/>
<path d="M218.779 23.203V7.00194H221.702L224.67 15.2014C225.043 16.2786 225.373 17.3777 225.747 18.4548H225.857C226.23 17.3777 226.538 16.2786 226.912 15.2014L229.835 7.00194H232.781V23.203H230.407V15.2014C230.407 13.7506 230.605 11.6622 230.737 10.1894H230.649L229.352 13.9264L226.538 21.6423H224.955L222.12 13.9264L220.845 10.1894H220.757C220.867 11.6622 221.065 13.7506 221.065 15.2014V23.203H218.779Z" fill="white"/>
<path d="M208.631 23.203L203.554 7.00194H206.257L208.653 15.3993C209.203 17.2458 209.577 18.8285 210.126 20.697H210.236C210.808 18.8285 211.181 17.2458 211.709 15.3993L214.105 7.00194H216.699L211.643 23.203H208.631Z" fill="white"/>
<path fill-rule="evenodd" clip-rule="evenodd" d="M163.54 28.1085V2.54541H168.626V13.0132L177.024 2.54541H182.893L174.827 12.6283L183.936 28.1085H178.215L171.633 16.6834L168.626 20.3816V28.1085H163.54Z" fill="#343434"/>
<path fill-rule="evenodd" clip-rule="evenodd" d="M160.215 5.79669L157.327 9.18861L156.844 8.69272C155.672 7.48957 154.308 6.70702 152.548 6.70702C150.646 6.70702 149.057 7.49295 147.929 8.92703C146.79 10.3744 146.089 12.5245 146.089 15.276C146.089 18.0716 146.745 20.2478 147.85 21.7089C148.939 23.1508 150.499 23.9439 152.449 23.9439C154.469 23.9439 155.992 23.0669 157.359 21.5764L157.842 21.0496L160.699 24.4141L160.344 24.823C158.288 27.1932 155.645 28.5356 152.317 28.5356C149.104 28.5356 146.233 27.3332 144.171 25.0602C142.113 22.7907 140.904 19.5047 140.904 15.4079C140.904 11.3228 142.148 7.99757 144.241 5.68598C146.336 3.37159 149.246 2.11523 152.482 2.11523C155.727 2.11523 158.26 3.66816 159.838 5.38589L160.215 5.79669Z" fill="#343434"/>
<path fill-rule="evenodd" clip-rule="evenodd" d="M127.95 14.4695L127.949 14.4712L127.207 16.922H132.142L131.424 14.471C130.799 12.4713 130.232 10.4355 129.679 8.38234C129.131 10.4511 128.549 12.4709 127.95 14.4695ZM118.625 28.1085L127.088 2.54541H132.417L140.88 28.1085H135.48L133.436 21.184H125.936L123.858 28.1085H118.625Z" fill="#343434"/>
<path fill-rule="evenodd" clip-rule="evenodd" d="M108.367 28.1085V7.03827H101.245V2.54541H120.609V7.03827H113.454V28.1085H108.367Z" fill="#343434"/>
<path fill-rule="evenodd" clip-rule="evenodd" d="M82.165 24.3752L85.224 20.7763L85.7076 21.2599C87.3579 22.9102 89.578 23.9439 91.7243 23.9439C93.1008 23.9439 94.0955 23.6183 94.7308 23.1274C95.3488 22.6501 95.6769 21.9805 95.6769 21.1453C95.6769 20.2394 95.357 19.6884 94.8009 19.2283C94.1984 18.7297 93.3346 18.3487 92.2017 17.8489L92.1646 17.8325L88.808 16.3845C88.8073 16.3842 88.8066 16.3839 88.8059 16.3836C86.3955 15.3647 83.4769 13.36 83.4769 9.43962C83.4769 5.16969 87.2277 2.11523 92.087 2.11523C95.0957 2.11523 97.9275 3.37302 99.8899 5.37049L100.288 5.77554L97.4983 9.15958L97.009 8.72341C95.5797 7.44941 94.0416 6.70702 92.087 6.70702C90.943 6.70702 90.0673 6.98249 89.4942 7.41311C88.9394 7.83006 88.6291 8.41835 88.6291 9.17583C88.6291 9.99112 88.9858 10.5455 89.6013 11.0158C90.2532 11.5139 91.1468 11.8794 92.1564 12.2833L92.1628 12.2859L95.4993 13.7064C96.9769 14.3348 98.3153 15.1334 99.2836 16.2835C100.265 17.4496 100.829 18.9323 100.829 20.8485C100.829 25.1684 97.2288 28.5356 91.6584 28.5356C88.1614 28.5356 84.8995 27.1505 82.5702 24.7864L82.165 24.3752Z" fill="#343434"/>
<path d="M64.3291 28.1085V2.54541H79.9337V7.03827H69.4153V12.5365H78.318V17.0293H69.4153V23.6156H80.2964V28.1085H64.3291Z" fill="#343434"/>
<path fill-rule="evenodd" clip-rule="evenodd" d="M64.3291 28.1085V2.54541H79.9337V7.03827H69.4153V12.5365H78.318V17.0293H69.4153V23.6156H80.2964V28.1085H64.3291ZM69.4153 23.6156V17.0293H78.318V12.5365H69.4153V7.03827H79.9337V2.54541H64.3291V28.1085H80.2964V23.6156H69.4153Z" fill="#343434"/>
<path fill-rule="evenodd" clip-rule="evenodd" d="M45.9463 28.1085V2.54541H51.0325V23.6156H61.3201V28.1085H45.9463Z" fill="#343434"/>
<path fill-rule="evenodd" clip-rule="evenodd" d="M23.9502 28.1085V2.54541H32.0987C34.6372 2.54541 36.9198 2.95391 38.5869 3.99757C40.3006 5.07038 41.3023 6.77765 41.3023 9.17735C41.3023 11.2192 40.3781 13.2451 38.702 14.3806C39.6321 14.7549 40.4571 15.3019 41.1103 16.0375C42.0735 17.1223 42.6212 18.5709 42.6212 20.3554C42.6212 22.9594 41.5474 24.9342 39.7231 26.2354C37.9268 27.5166 35.4572 28.1085 32.6922 28.1085H23.9502ZM29.0364 12.7013H31.6701C33.4555 12.7013 34.6074 12.3634 35.3002 11.8489C35.9586 11.3598 36.282 10.6512 36.282 9.67196C36.282 8.56588 35.9231 7.91648 35.2834 7.50128C34.5841 7.04738 33.4518 6.80745 31.769 6.80745H29.0364V12.7013ZM32.2635 24.4772C36.0553 24.4772 38.2316 23.1253 38.2316 20.1576C38.2316 17.4208 36.1213 16.2008 32.2635 16.2008H28.4057V24.4772H32.2635Z" fill="#343434"/>
<path fill-rule="evenodd" clip-rule="evenodd" d="M9.32481 14.469L9.32431 14.4707L8.58167 16.9215H13.5171L12.7992 14.4705C12.1744 12.4708 11.6066 10.4351 11.0543 8.38186C10.5057 10.4506 9.92438 12.4704 9.32481 14.469ZM0 28.108L8.46299 2.54492H13.7925L22.2555 28.108H16.8552L14.8109 21.1835H7.31052L5.23323 28.108H0Z" fill="#343434"/>
</svg>
