<svg width="100%" height="100%" viewBox="0 0 238 29" fill="none" xmlns="http://www.w3.org/2000/svg">
<path d="M155.172 25.9226V3.07959H158.767V13.8967H158.86L167.539 3.07959H171.537L164.47 11.913L172.715 25.9226H168.717L162.27 14.7336L158.767 19.0418V25.9226H155.172Z" fill="#343434"/>
<path fill-rule="evenodd" clip-rule="evenodd" d="M154.579 26.5153V2.48657H159.36V12.3261L167.254 2.48657H172.771L165.188 11.9643L173.752 26.5153H168.374L162.186 15.776L159.36 19.2522V26.5153H154.579ZM158.767 19.0416L162.27 14.7334L168.717 25.9224H172.715L164.47 11.9129L171.537 3.07943H167.539L158.86 13.8965H158.767V3.07943H155.172V25.9224H158.767V19.0416Z" fill="#343434"/>
<path d="M144.029 26.3247C138.295 26.3247 133.894 22.0474 133.894 14.5777C133.894 7.139 138.419 2.67578 144.184 2.67578C147.035 2.67578 149.267 4.03954 150.662 5.55828L148.709 7.85188C147.531 6.64309 146.105 5.80623 144.246 5.80623C140.309 5.80623 137.582 9.09166 137.582 14.4537C137.582 19.8778 140.123 23.1942 144.153 23.1942C146.26 23.1942 147.841 22.2644 149.205 20.7766L151.127 23.0392C149.298 25.1469 146.973 26.3247 144.029 26.3247Z" fill="#343434"/>
<path fill-rule="evenodd" clip-rule="evenodd" d="M151.453 5.54324L148.739 8.73158L148.284 8.26546C147.182 7.13452 145.901 6.39894 144.246 6.39894C142.458 6.39894 140.965 7.1377 139.904 8.4857C138.833 9.84622 138.175 11.8672 138.175 14.4536C138.175 17.0814 138.791 19.127 139.829 20.5004C140.854 21.8558 142.32 22.6012 144.153 22.6012C146.051 22.6012 147.484 21.7768 148.768 20.3759L149.222 19.8806L151.908 23.0432L151.574 23.4276C149.641 25.6555 147.157 26.9174 144.029 26.9174C141.008 26.9174 138.31 25.7871 136.372 23.6505C134.437 21.5173 133.301 18.4284 133.301 14.5775C133.301 10.7377 134.47 7.61203 136.437 5.43918C138.407 3.26371 141.142 2.08276 144.184 2.08276C147.234 2.08276 149.616 3.54248 151.098 5.15711L151.453 5.54324ZM150.662 5.55812L148.709 7.85172C148.57 7.70898 148.427 7.57142 148.281 7.43981C147.188 6.45695 145.886 5.80608 144.246 5.80608C140.31 5.80608 137.582 9.0915 137.582 14.4536C137.582 19.8776 140.124 23.194 144.153 23.194C146.05 23.194 147.521 22.4403 148.79 21.2043C148.931 21.0674 149.069 20.9247 149.205 20.7765L151.127 23.0391C149.298 25.1467 146.973 26.3245 144.029 26.3245C138.295 26.3245 133.894 22.0472 133.894 14.5775C133.894 7.13885 138.419 2.67562 144.184 2.67562C147.035 2.67562 149.267 4.03939 150.662 5.55812Z" fill="#343434"/>
<path d="M120.555 13.5248L119.626 16.5932H125.855L124.957 13.5248C124.182 11.0452 123.5 8.50364 122.818 5.93109H122.663C122.012 8.53464 121.299 11.0452 120.555 13.5248ZM113.179 25.9226L120.741 3.07959H124.895L132.457 25.9226H128.645L126.723 19.4137H118.789L116.836 25.9226H113.179Z" fill="#343434"/>
<path fill-rule="evenodd" clip-rule="evenodd" d="M121.124 13.695L121.123 13.6965L120.425 16.0002H125.065L124.39 13.6964C123.802 11.8167 123.269 9.90313 122.749 7.97315C122.234 9.91776 121.687 11.8163 121.124 13.695ZM122.44 6.81398C121.85 9.10401 121.215 11.3265 120.556 13.5246L119.626 16.5931H125.856L124.957 13.5246C124.271 11.3283 123.657 9.08331 123.052 6.81125C122.978 6.53204 122.904 6.25242 122.83 5.97243C122.826 5.9586 122.822 5.94477 122.819 5.93093H122.664C122.66 5.9456 122.656 5.96027 122.653 5.97493C122.582 6.25567 122.511 6.53532 122.44 6.81398ZM112.358 26.5153L120.314 2.48657H125.323L133.279 26.5153H128.202L126.281 20.0064H119.23L117.278 26.5153H112.358ZM118.789 19.4136H126.724L128.645 25.9224H132.458L124.895 3.07943H120.742L113.179 25.9224H116.837L118.789 19.4136Z" fill="#343434"/>
<path d="M103.31 25.9226V6.11706H96.6152V3.07959H113.631V6.11706H106.905V25.9226H103.31Z" fill="#343434"/>
<path fill-rule="evenodd" clip-rule="evenodd" d="M102.716 26.5153V6.70976H96.0215V2.48657H114.223V6.70976H107.497V26.5153H102.716ZM106.905 6.1169H113.63V3.07943H96.6143V6.1169H103.309V25.9224H106.905V6.1169Z" fill="#343434"/>
<path d="M87.0093 26.3247C83.8788 26.3247 80.9653 25.0849 78.8887 22.9772L80.9963 20.4977C82.639 22.1404 84.8706 23.1942 87.0712 23.1942C89.8298 23.1942 91.3795 21.8924 91.3795 19.9708C91.3795 17.8941 89.8298 17.2432 87.7221 16.3134L84.5607 14.9496C82.3601 14.0198 79.9115 12.2841 79.9115 8.96768C79.9115 5.37231 83.0729 2.67578 87.4122 2.67578C90.0777 2.67578 92.5883 3.79159 94.324 5.55828L92.4333 7.85188C91.0076 6.5811 89.4268 5.80623 87.4122 5.80623C85.0876 5.80623 83.5689 6.92204 83.5689 8.71973C83.5689 10.7034 85.3975 11.4473 87.2572 12.1911L90.3877 13.5239C93.0842 14.6707 95.0369 16.3444 95.0369 19.6918C95.0369 23.3492 91.9994 26.3247 87.0093 26.3247Z" fill="#343434"/>
<path fill-rule="evenodd" clip-rule="evenodd" d="M78.0859 23.0066L80.9614 19.6237L81.416 20.0783C82.9672 21.6295 85.0542 22.6012 87.0717 22.6012C88.3656 22.6012 89.3006 22.2951 89.8978 21.8338C90.4787 21.3851 90.7871 20.7556 90.7871 19.9706C90.7871 19.119 90.4864 18.6011 89.9637 18.1687C89.3973 17.7 88.5854 17.3418 87.5205 16.8721L87.4855 16.8566L84.3304 15.4956C84.3297 15.4953 84.329 15.495 84.3284 15.4947C82.0626 14.5369 79.3191 12.6526 79.3191 8.96752C79.3191 4.95389 82.8449 2.08276 87.4126 2.08276C90.2408 2.08276 92.9027 3.26505 94.7473 5.14263L95.1214 5.52337L92.4993 8.70429L92.0393 8.2943C90.6957 7.09677 89.2499 6.39894 87.4126 6.39894C86.3372 6.39894 85.5141 6.65787 84.9754 7.06265C84.4539 7.45457 84.1622 8.00755 84.1622 8.71957C84.1622 9.48592 84.4975 10.0071 85.0761 10.4491C85.6888 10.9173 86.5288 11.2609 87.4779 11.6405L87.4839 11.6429L90.6202 12.9782C90.6201 12.9781 90.6202 12.9782 90.6202 12.9782C92.0091 13.5689 93.2673 14.3195 94.1774 15.4006C95.1002 16.4967 95.6302 17.8904 95.6302 19.6917C95.6302 23.7523 92.2459 26.9174 87.0097 26.9174C83.7226 26.9174 80.6563 25.6154 78.4668 23.3932L78.0859 23.0066ZM90.3881 13.5237L87.2577 12.191C85.398 11.4471 83.5693 10.7032 83.5693 8.71957C83.5693 6.92188 85.088 5.80608 87.4126 5.80608C89.2164 5.80608 90.6724 6.42723 91.9807 7.46932C92.1336 7.59114 92.2845 7.71871 92.4338 7.85172L94.3244 5.55812C92.5887 3.79143 90.0782 2.67562 87.4126 2.67562C83.0734 2.67562 79.912 5.37215 79.912 8.96752C79.912 12.2839 82.3605 14.0196 84.5611 14.9495L87.7226 16.3132C87.755 16.3275 87.7873 16.3418 87.8195 16.356C89.8775 17.2634 91.38 17.9259 91.38 19.9706C91.38 21.8923 89.8302 23.194 87.0717 23.194C85.0586 23.194 83.0195 22.3121 81.4291 20.9043C81.281 20.7732 81.1367 20.6375 80.9968 20.4975L78.8891 22.9771C80.9658 25.0847 83.8793 26.3245 87.0097 26.3245C91.9998 26.3245 95.0373 23.349 95.0373 19.6917C95.0373 16.3442 93.0847 14.6705 90.3881 13.5237Z" fill="#343434"/>
<path d="M61.9131 25.9226V3.07959H75.3957V6.11706H65.5085V12.4709H73.877V15.5084H65.5085V22.8851H75.7367V25.9226H61.9131Z" fill="#343434"/>
<path fill-rule="evenodd" clip-rule="evenodd" d="M61.3203 26.5153V2.48657H75.9887V6.70976H66.1014V11.8779H74.4699V16.1011H66.1014V22.2921H76.3296V26.5153H61.3203ZM65.5085 22.885V15.5083H73.8771V12.4708H65.5085V6.1169H75.3958V3.07943H61.9132V25.9224H75.7368V22.885H65.5085Z" fill="#343434"/>
<path d="M44.6328 25.9226V3.07959H48.2282V22.8851H57.8985V25.9226H44.6328Z" fill="#343434"/>
<path fill-rule="evenodd" clip-rule="evenodd" d="M44.04 26.5153V2.48657H48.8211V22.2921H58.4914V26.5153H44.04ZM48.2283 22.885V3.07943H44.6329V25.9224H57.8986V22.885H48.2283Z" fill="#343434"/>
<path d="M23.957 25.9226V3.07959H31.0238C35.704 3.07959 39.0824 4.59832 39.0824 8.7206C39.0824 10.8902 37.8736 12.9669 35.828 13.6487V13.8037C38.4315 14.3616 40.3222 16.1283 40.3222 19.2278C40.3222 23.753 36.6338 25.9226 31.5817 25.9226H23.957ZM27.5524 12.6259H30.6209C34.0923 12.6259 35.549 11.3242 35.549 9.18552C35.549 6.79894 33.9373 5.9001 30.7139 5.9001H27.5524V12.6259ZM27.5524 23.1021H31.1788C34.7431 23.1021 36.7888 21.8313 36.7888 19.0418C36.7888 16.4692 34.8051 15.3224 31.1788 15.3224H27.5524V23.1021Z" fill="#343434"/>
<path fill-rule="evenodd" clip-rule="evenodd" d="M23.3643 26.5153V2.48657H31.0239C33.41 2.48657 35.5557 2.87055 37.1228 3.85157C38.7337 4.85999 39.6753 6.46478 39.6753 8.72045C39.6753 10.6397 38.8065 12.5441 37.231 13.6113C38.1053 13.9632 38.8808 14.4774 39.4948 15.1689C40.4002 16.1885 40.9151 17.5502 40.9151 19.2276C40.9151 21.6752 39.9057 23.5315 38.1908 24.7547C36.5023 25.9589 34.1809 26.5153 31.5818 26.5153H23.3643ZM36.5532 13.9965C36.3362 13.9267 36.1128 13.8665 35.8838 13.8157C35.8652 13.8116 35.8466 13.8075 35.828 13.8036V13.6486C35.84 13.6446 35.8519 13.6406 35.8638 13.6365C36.0857 13.5604 36.2976 13.4678 36.4991 13.3605C38.1353 12.4886 39.0825 10.6409 39.0825 8.72045C39.0825 4.59817 35.7041 3.07943 31.0239 3.07943H23.9571V25.9224H31.5818C36.6339 25.9224 40.3223 23.7528 40.3223 19.2276C40.3223 16.4241 38.7754 14.7109 36.5532 13.9965ZM28.1453 12.0329H30.621C32.2993 12.0329 33.3821 11.7153 34.0333 11.2316C34.6522 10.7719 34.9562 10.1058 34.9562 9.18537C34.9562 8.14568 34.6189 7.53526 34.0175 7.14498C33.3602 6.71833 32.2958 6.4928 30.7139 6.4928H28.1453V12.0329ZM30.621 12.6258C34.0923 12.6258 35.5491 11.324 35.5491 9.18537C35.5491 6.79878 33.9374 5.89994 30.7139 5.89994H27.5525V12.6258H30.621ZM28.1453 22.5091H31.1789C32.9079 22.5091 34.1683 22.1978 34.9817 21.6313C35.7578 21.0909 36.196 20.2705 36.196 19.0416C36.196 17.936 35.7857 17.2046 35.0239 16.7164C34.2159 16.1986 32.9491 15.9152 31.1789 15.9152H28.1453V22.5091ZM31.1789 23.1019C34.7432 23.1019 36.7889 21.8312 36.7889 19.0416C36.7889 16.4691 34.8052 15.3223 31.1789 15.3223H27.5525V23.1019H31.1789Z" fill="#343434"/>
<path d="M9.04859 13.5248L8.11875 16.5932H14.3487L13.4498 13.5248C12.675 11.0452 11.9931 8.50364 11.3112 5.93109H11.1562C10.5053 8.53464 9.79246 11.0452 9.04859 13.5248ZM1.67188 25.9226L9.23455 3.07959H13.3878L20.9505 25.9226H17.1382L15.2165 19.4137H7.2819L5.32924 25.9226H1.67188Z" fill="#343434"/>
<path fill-rule="evenodd" clip-rule="evenodd" d="M9.61594 13.695L9.61547 13.6965L8.91738 16.0002H13.5567L12.8818 13.6963C12.2946 11.8167 11.7609 9.90312 11.2417 7.97316C10.726 9.91776 10.1795 11.8163 9.61594 13.695ZM10.9317 6.81399C11.0034 6.53533 11.0744 6.25567 11.1447 5.97493C11.1484 5.96027 11.152 5.9456 11.1557 5.93093H11.3107C11.3144 5.94477 11.318 5.9586 11.3217 5.97243C11.3959 6.25242 11.4701 6.53204 11.5445 6.81126C12.1496 9.08332 12.763 11.3283 13.4493 13.5246L14.3482 16.5931H8.11825L9.04808 13.5246C9.70752 11.3265 10.3426 9.10401 10.9317 6.81399ZM0.850586 26.5153L8.80582 2.48657H13.8156L21.7708 26.5153H16.6945L14.7729 20.0064H7.7225L5.76984 26.5153H0.850586ZM7.28139 19.4136H15.216L17.1377 25.9224H20.95L13.3873 3.07943H9.23405L1.67137 25.9224H5.32873L7.28139 19.4136Z" fill="#343434"/>
<path d="M179.752 3.59448C179.752 2.00949 181.037 0.724609 182.622 0.724609H234.279C235.864 0.724609 237.149 2.00949 237.149 3.59448V25.4055C237.149 26.9905 235.864 28.2754 234.279 28.2754H182.622C181.037 28.2754 179.752 26.9905 179.752 25.4055V3.59448Z" fill="#2D2D2D"/>
<path d="M222.063 22.5537V6.27368H225.319V22.5537H222.063Z" fill="white"/>
<path d="M214.248 22.8618C210.134 22.8618 206.812 19.9138 206.812 14.4798C206.812 9.11179 210.244 5.98779 214.38 5.98779C216.448 5.98779 218.098 6.95579 219.154 8.05579L217.438 10.1458C216.602 9.33179 215.678 8.78179 214.424 8.78179C211.982 8.78179 210.134 10.8938 210.134 14.3698C210.134 17.9338 211.784 20.0458 214.38 20.0458C215.766 20.0458 216.866 19.3858 217.724 18.4398L219.44 20.4858C218.098 22.0478 216.36 22.8618 214.248 22.8618Z" fill="white"/>
<path d="M190.976 22.5537V6.27368H194.232V12.6977H200.392V6.27368H203.626V22.5537H200.392V15.5137H194.232V22.5537H190.976Z" fill="white"/>
</svg>
