<svg width="16" height="16" viewBox="0 0 16 16" fill="none" xmlns="http://www.w3.org/2000/svg">
<path d="M8.5478 2.95402C8.48664 2.86519 8.4048 2.79256 8.30934 2.74239C8.21387 2.69221 8.10764 2.666 7.9998 2.666C7.89195 2.666 7.78572 2.69221 7.69026 2.74239C7.59479 2.79256 7.51296 2.86519 7.4518 2.95402L1.4518 11.6207C1.38235 11.7206 1.34162 11.8377 1.33404 11.9592C1.32646 12.0807 1.35232 12.2019 1.40881 12.3098C1.46529 12.4176 1.55025 12.5079 1.65444 12.5708C1.75863 12.6337 1.87808 12.6669 1.9998 12.6667L13.9998 12.6667C14.1212 12.6662 14.2402 12.6326 14.344 12.5695C14.4478 12.5064 14.5324 12.4163 14.5888 12.3087C14.6451 12.2011 14.6711 12.0802 14.6639 11.959C14.6566 11.8378 14.6165 11.7208 14.5478 11.6207L8.5478 2.95402Z" fill="white"/>
</svg>
