<svg width="16" height="16" viewBox="0 0 16 16" fill="none" xmlns="http://www.w3.org/2000/svg">
<path d="M4.48578 1.54458L5.59264 1.21086C5.95794 1.1009 6.35076 1.12758 6.69784 1.28592C7.04492 1.44427 7.32254 1.72347 7.47892 2.07143L8.25492 3.79715C8.38961 4.09653 8.42715 4.43058 8.36227 4.75239C8.2974 5.0742 8.13336 5.36761 7.89321 5.59143L6.71206 6.692C6.55378 6.84229 6.67378 7.428 7.25206 8.43029C7.83092 9.43315 8.27835 9.82972 8.48464 9.768L10.0321 9.29486C10.3457 9.19892 10.6816 9.20353 10.9925 9.30806C11.3034 9.41258 11.5738 9.61178 11.7658 9.87772L12.8686 11.4063C13.0914 11.715 13.1945 12.094 13.1589 12.473C13.1233 12.852 12.9513 13.2051 12.6749 13.4669L11.8223 14.2743C11.5471 14.5349 11.2077 14.7179 10.8387 14.8045C10.4696 14.8912 10.0842 14.8784 9.72178 14.7674C7.93549 14.2206 6.28121 12.5977 4.73664 9.92172C3.18864 7.24172 2.60406 4.98115 3.01149 3.13429C3.09367 2.76215 3.2736 2.41866 3.53275 2.13922C3.79189 1.85978 4.12088 1.65452 4.48578 1.54458Z" fill="#444444"/>
</svg>
