<svg width="20" height="20" viewBox="0 0 20 20" fill="none" xmlns="http://www.w3.org/2000/svg">
<path d="M15.2946 4.66611C15.3799 4.57394 15.4817 4.50072 15.5941 4.45073C15.7065 4.40075 15.8271 4.375 15.949 4.375C16.0709 4.375 16.1915 4.40075 16.3039 4.45073C16.4163 4.50072 16.5181 4.57394 16.6034 4.66611C16.9609 5.04864 16.9659 5.66677 16.6159 6.05591L9.22449 15.308C9.14057 15.4056 9.03873 15.484 8.92521 15.5385C8.81168 15.593 8.68885 15.6224 8.56423 15.6248C8.43962 15.6273 8.31584 15.6028 8.20046 15.5529C8.08508 15.503 7.98053 15.4287 7.89321 15.3345L3.39562 10.5086C3.22216 10.3213 3.125 10.0694 3.125 9.80706C3.125 9.54472 3.22216 9.29285 3.39562 9.10554C3.48093 9.01337 3.58275 8.94015 3.69511 8.89016C3.80748 8.84018 3.92813 8.81443 4.05001 8.81443C4.17189 8.81443 4.29254 8.84018 4.40491 8.89016C4.51727 8.94015 4.61909 9.01337 4.7044 9.10554L8.51948 13.1995L15.2696 4.69523C15.2774 4.685 15.2857 4.67528 15.2946 4.66611Z" fill="#8F00FF"/>
</svg>
