<svg width="160" height="20" viewBox="0 0 160 20" fill="none" xmlns="http://www.w3.org/2000/svg">
<path fill-rule="evenodd" clip-rule="evenodd" d="M42.7781 16.6732V4.91522H40.0361V17.8155C40.0361 18.1757 40.1804 18.5154 40.4382 18.7675C40.7062 19.0351 41.0567 19.1843 41.4484 19.1843H53.7513L55.3646 16.6681H42.7833L42.7781 16.6732Z" fill="white"/>
<path fill-rule="evenodd" clip-rule="evenodd" d="M21.7598 4.91522V19.1895H24.4966V19.174L33.0113 19.1895C35.5213 19.0454 37.65 18.0214 37.8355 15.4588C37.9438 13.9717 37.1088 12.783 35.8873 12.0318C37.1397 11.3782 38.052 10.241 37.8407 8.64073C37.5211 6.22738 35.4131 5.06445 32.903 4.92037H21.7598V4.91522ZM32.7123 7.43148C33.9854 7.43148 35.1502 8.0747 35.1502 9.11928C35.1502 10.344 33.6091 10.6836 32.3361 10.6836H26.1047L24.5585 13.1432H32.7948C34.0369 13.1793 35.1502 13.9408 35.1502 14.9751C35.1502 16.0094 34.0936 16.6629 32.8206 16.6629H24.4915V7.43148H32.7123Z" fill="white"/>
<path fill-rule="evenodd" clip-rule="evenodd" d="M71.5017 10.8356L69.9503 13.2232H58.6885L60.1883 10.8356H71.5017Z" fill="white"/>
<path fill-rule="evenodd" clip-rule="evenodd" d="M63.0283 16.6707C61.281 16.6707 59.7606 15.693 58.9771 14.2574C58.9411 14.1905 58.905 14.1184 58.8689 14.0515C58.8534 14.0207 58.838 13.9846 58.8225 13.9486C58.7813 13.8612 58.7452 13.7685 58.704 13.6759C58.704 13.6759 58.704 13.6759 58.704 13.6708C58.5133 13.1665 58.4102 12.6262 58.4102 12.055C58.4102 11.3758 58.5597 10.7326 58.8277 10.1511C58.838 10.1202 58.8534 10.0945 58.8689 10.0688C58.905 9.99157 58.9462 9.91438 58.9875 9.84234C59.0184 9.78574 59.0545 9.72399 59.0854 9.66739C59.0854 9.66739 59.0905 9.6571 59.0957 9.65195C59.8688 8.3861 61.2347 7.52162 62.8118 7.44958C62.8376 7.44958 62.8582 7.44958 62.884 7.44958C62.9355 7.44958 62.9819 7.43929 63.0335 7.43929H71.4966L73.1098 4.92303H62.8428C58.9153 4.92303 55.7197 8.11853 55.7197 12.0601C55.7197 16.0018 58.9101 19.1973 62.8428 19.1973H71.4966L73.1098 16.681H63.0335L63.0283 16.6707Z" fill="white"/>
<path fill-rule="evenodd" clip-rule="evenodd" d="M16.6582 19.1895H19.9001L11.6174 5.77456C11.2463 5.23426 10.6278 4.91522 9.9475 4.91522C9.26715 4.91522 8.62288 5.22397 8.25694 5.77456L0 19.1895H3.23165L5.03044 16.2204H11.4577L13.1482 13.5343H6.654L9.9578 8.05926L16.6633 19.1843L16.6582 19.1895Z" fill="white"/>
<path fill-rule="evenodd" clip-rule="evenodd" d="M85.3949 10.9H80.2098C78.9677 10.9 77.5709 10.5707 77.5709 9.37688C77.5709 8.35803 78.6069 7.73025 79.8491 7.73025H88.4565L90.1883 5.28088H79.6635C77.2101 5.42496 75.267 6.55188 74.9526 8.90862C74.6124 11.4815 77.2462 13.2979 79.8491 13.2979H80.148H85.1269C86.3691 13.2979 87.57 13.8948 87.57 15.0835C87.57 16.1023 86.534 16.7301 85.2918 16.7301H76.6123L75.0402 19.1846H85.6165C88.0699 19.0457 89.9821 18.0474 90.1831 15.5517C90.4614 12.0835 87.9978 10.9 85.4001 10.9H85.3949Z" fill="white"/>
<path fill-rule="evenodd" clip-rule="evenodd" d="M106.449 5.28088H92.2696L90.543 7.73025H96.9599V19.1743H99.64V7.73025H104.464L106.449 5.28088Z" fill="white"/>
<path fill-rule="evenodd" clip-rule="evenodd" d="M117.349 19.1877H120.514L112.422 6.12275C112.061 5.59789 111.453 5.284 110.793 5.284C110.134 5.284 109.5 5.58245 109.144 6.12275L101.067 19.1877H104.227L105.984 16.2958H112.262L113.912 13.6818H107.567L110.793 8.35085L117.344 19.1877H117.349Z" fill="white"/>
<path fill-rule="evenodd" clip-rule="evenodd" d="M126.464 16.7343C124.758 16.7343 123.268 15.7823 122.505 14.3827C122.469 14.3158 122.433 14.2489 122.402 14.182C122.387 14.1512 122.371 14.1151 122.356 14.0843C122.315 13.9968 122.279 13.9093 122.242 13.8167C122.242 13.8167 122.242 13.8167 122.242 13.8115C122.057 13.3227 121.954 12.7927 121.954 12.2369C121.954 11.5783 122.098 10.9505 122.361 10.3845C122.371 10.3588 122.387 10.333 122.397 10.3022C122.433 10.225 122.469 10.1529 122.51 10.0809C122.541 10.0243 122.577 9.96768 122.608 9.91108C122.608 9.91108 122.614 9.90079 122.619 9.89564C123.376 8.66067 124.711 7.82192 126.247 7.74988C126.273 7.74988 126.294 7.74988 126.319 7.74988C126.366 7.74988 126.417 7.73959 126.464 7.73959H134.736L136.313 5.29022H126.283C122.443 5.29022 119.325 8.40338 119.325 12.2421C119.325 16.0808 122.443 19.194 126.283 19.194H134.736L136.313 16.7446H126.464V16.7343Z" fill="white"/>
<path d="M137.925 19.191V5.21521H140.368V19.191H137.925ZM149.455 19.191C139.224 10.6697 137.925 13.824 149.145 5.21521H152.898L143.734 12.0384L153.186 19.191H149.449H149.455Z" fill="white"/>
<path d="M157.228 6.32924C156.846 6.32924 156.486 6.2572 156.151 6.11312C155.816 5.96904 155.522 5.7735 155.269 5.52136C155.017 5.26922 154.816 4.97591 154.676 4.64144C154.532 4.30697 154.46 3.95192 154.46 3.56599C154.46 3.18006 154.532 2.825 154.676 2.49053C154.821 2.15606 155.017 1.86275 155.269 1.61061C155.522 1.35847 155.816 1.15779 156.151 1.01885C156.486 0.874774 156.846 0.802734 157.228 0.802734C157.609 0.802734 157.97 0.874774 158.305 1.01885C158.64 1.16293 158.934 1.35847 159.186 1.61061C159.439 1.86275 159.64 2.15606 159.784 2.49053C159.929 2.825 160.001 3.1852 160.001 3.56599C160.001 3.94677 159.929 4.30697 159.784 4.64144C159.64 4.97591 159.444 5.26922 159.186 5.52136C158.929 5.7735 158.64 5.97418 158.305 6.11312C157.97 6.2572 157.614 6.32924 157.228 6.32924ZM157.228 5.66544C157.614 5.66544 157.97 5.57282 158.284 5.38243C158.599 5.19204 158.856 4.93989 159.047 4.62086C159.238 4.30183 159.331 3.95192 159.331 3.56599C159.331 3.18006 159.238 2.825 159.047 2.50597C158.856 2.18693 158.604 1.93479 158.284 1.7444C157.965 1.55401 157.614 1.46139 157.228 1.46139C156.841 1.46139 156.486 1.55401 156.166 1.7444C155.846 1.93479 155.594 2.18693 155.403 2.50597C155.212 2.825 155.12 3.17491 155.12 3.56599C155.12 3.95706 155.212 4.30697 155.403 4.62086C155.594 4.93989 155.846 5.19204 156.166 5.38243C156.486 5.57282 156.836 5.66544 157.228 5.66544ZM156.259 4.80611V2.25383H157.552C157.656 2.25383 157.769 2.2847 157.893 2.34131C158.016 2.39791 158.119 2.49053 158.207 2.60888C158.295 2.72723 158.336 2.88161 158.336 3.06685C158.336 3.2521 158.289 3.41162 158.202 3.54026C158.114 3.6689 158.001 3.76667 157.872 3.83356C157.743 3.90046 157.625 3.93648 157.511 3.93648H156.578V3.51968H157.341C157.418 3.51968 157.501 3.48366 157.589 3.40647C157.676 3.32928 157.723 3.21608 157.723 3.06171C157.723 2.90733 157.676 2.79927 157.589 2.74267C157.501 2.68607 157.424 2.66034 157.357 2.66034H156.826V4.79581H156.264L156.259 4.80611ZM157.805 3.60201L158.444 4.80611H157.826L157.202 3.60201H157.805Z" fill="white"/>
</svg>
