<svg width="48" height="48" viewBox="0 0 48 48" fill="none" xmlns="http://www.w3.org/2000/svg">
<path d="M25.31 9.60938C25.7215 9.60938 26.0897 9.86557 26.2283 10.2492L27.2167 12.9889C27.5704 13.0766 27.8756 13.1662 28.1323 13.2576C28.4123 13.3575 28.7762 13.5115 29.2242 13.7196L31.5257 12.5017C31.7135 12.4017 31.9287 12.3655 32.1388 12.3986C32.3489 12.4317 32.5426 12.5322 32.6905 12.6851L34.7148 14.778C34.9836 15.0566 35.0592 15.464 34.908 15.8196L33.8287 18.3493C34.0069 18.6778 34.1507 18.9597 34.2599 19.1948C34.3774 19.4496 34.523 19.8043 34.6966 20.2588L37.2124 21.3368C37.5903 21.4978 37.8241 21.8758 37.7989 22.2803L37.6141 25.1852C37.6015 25.374 37.5337 25.5548 37.4193 25.7054C37.3048 25.8559 37.1486 25.9696 36.9702 26.0322L34.5874 26.8792C34.5193 27.2077 34.4474 27.4905 34.3718 27.7275C34.2495 28.095 34.1103 28.4565 33.9547 28.8111L35.1516 31.457C35.2368 31.6428 35.2599 31.851 35.2175 32.051C35.1752 32.2509 35.0696 32.4319 34.9164 32.5672L32.6401 34.5999C32.4905 34.7338 32.3034 34.8184 32.1041 34.8425C31.9048 34.8665 31.7029 34.8287 31.5257 34.7343L29.1794 33.4911C28.8127 33.6863 28.434 33.8579 28.0455 34.0049L27.0207 34.3885L26.1107 36.9084C26.0426 37.0925 25.9208 37.252 25.7611 37.366C25.6013 37.4801 25.411 37.5436 25.2148 37.5482L22.5549 37.6084C22.3533 37.6131 22.1553 37.5555 21.9877 37.4435C21.8201 37.3315 21.6911 37.1706 21.6183 36.9826L20.5459 34.1449C20.1801 34.0196 19.8179 33.8842 19.4596 33.7389C19.1666 33.6121 18.878 33.4753 18.5944 33.3288L15.9345 34.4655C15.7593 34.5406 15.566 34.563 15.3782 34.53C15.1905 34.4969 15.0165 34.4098 14.8775 34.2793L12.9092 32.4328C12.7621 32.2963 12.6619 32.1168 12.6229 31.9199C12.584 31.723 12.6082 31.5189 12.6922 31.3366L13.836 28.8447C13.6844 28.5493 13.5434 28.2486 13.4132 27.9431C13.2615 27.5691 13.1215 27.1905 12.9932 26.8078L10.4873 26.0448C10.2836 25.9832 10.1059 25.8561 9.98188 25.6832C9.85783 25.5103 9.79435 25.3013 9.8013 25.0886L9.89929 22.3993C9.90657 22.2239 9.96151 22.0538 10.0582 21.9073C10.1549 21.7608 10.2897 21.6434 10.4481 21.5678L13.0772 20.305C13.1985 19.8589 13.3058 19.5098 13.3992 19.2578C13.5313 18.9194 13.6779 18.5868 13.8388 18.2611L12.6992 15.8532C12.6121 15.6704 12.5854 15.4647 12.6232 15.2658C12.661 15.0669 12.7611 14.8853 12.9092 14.7472L14.8747 12.8909C15.0123 12.7606 15.1847 12.673 15.3711 12.6387C15.5574 12.6044 15.7497 12.6249 15.9247 12.6977L18.5818 13.7952C18.8748 13.6002 19.1418 13.4396 19.3826 13.3136C19.6691 13.1625 20.0536 13.001 20.5361 12.8293L21.4601 10.252C21.5291 10.0638 21.6541 9.9013 21.8183 9.78641C21.9826 9.67151 22.178 9.60972 22.3785 9.60938H25.31ZM23.8344 19.4356C21.5007 19.4356 19.6094 21.3046 19.6094 23.6117C19.6094 25.9188 21.5007 27.7891 23.8344 27.7891C26.1681 27.7891 28.0581 25.9188 28.0581 23.6117C28.0581 21.3046 26.1681 19.4356 23.8344 19.4356Z" fill="#A8A8A8"/>
</svg>
