<svg width="48" height="48" viewBox="0 0 48 48" fill="none" xmlns="http://www.w3.org/2000/svg">
<path d="M21.4207 28.6094L28.6867 24.4094L21.4207 20.2094V28.6094ZM37.6047 17.6474C37.7867 18.3054 37.9127 19.1874 37.9967 20.3074C38.0947 21.4274 38.1367 22.3934 38.1367 23.2334L38.2207 24.4094C38.2207 27.4754 37.9967 29.7294 37.6047 31.1714C37.2547 32.4314 36.4427 33.2434 35.1827 33.5934C34.5247 33.7754 33.3207 33.9014 31.4727 33.9854C29.6527 34.0834 27.9867 34.1254 26.4467 34.1254L24.2207 34.2094C18.3547 34.2094 14.7007 33.9854 13.2587 33.5934C11.9987 33.2434 11.1867 32.4314 10.8367 31.1714C10.6547 30.5134 10.5287 29.6314 10.4447 28.5114C10.3467 27.3914 10.3047 26.4254 10.3047 25.5854L10.2207 24.4094C10.2207 21.3434 10.4447 19.0894 10.8367 17.6474C11.1867 16.3874 11.9987 15.5754 13.2587 15.2254C13.9167 15.0434 15.1207 14.9174 16.9687 14.8334C18.7887 14.7354 20.4547 14.6934 21.9947 14.6934L24.2207 14.6094C30.0867 14.6094 33.7407 14.8334 35.1827 15.2254C36.4427 15.5754 37.2547 16.3874 37.6047 17.6474Z" fill="#A8A8A8"/>
</svg>
