<svg width="120" height="22" viewBox="0 0 120 22" fill="none" xmlns="http://www.w3.org/2000/svg">
<g clip-path="url(#clip0_5980_22767)">
<path d="M1.85145 17.9975C2.49092 17.9975 2.56419 18.4238 2.58418 18.577V18.637H3.27693V18.5637C3.19034 17.5379 2.17785 17.4513 1.86477 17.4513C0.619146 17.4513 0.172852 18.4838 0.172852 19.4563C0.172852 19.9026 0.292752 21.3814 1.80482 21.3814C2.42431 21.3814 3.17702 21.1016 3.26361 20.2956L3.27693 20.2223H2.57751L2.56419 20.2756C2.55087 20.3555 2.52423 20.4954 2.40433 20.6286C2.27776 20.7619 2.09125 20.8285 1.85145 20.8285C1.20532 20.8285 0.872269 20.3689 0.872269 19.4563C0.872269 18.9167 0.99883 18.0042 1.85811 18.0042" fill="#0054A5"/>
<path d="M6.06131 19.0833H4.43599V17.4979H3.7832V21.3147H4.43599V19.6561H6.06131V21.3147H6.71409V17.4979H6.06131V19.0833Z" fill="#0054A5"/>
<path d="M10.0584 19.8293C10.0584 20.0958 10.0584 20.8018 9.11918 20.8018C8.75948 20.8018 8.49303 20.6886 8.3265 20.4688C8.25323 20.3622 8.1733 20.209 8.1733 19.8493V17.4979H7.52051V19.8093C7.52051 20.3422 7.61376 20.582 7.74699 20.7819C8.13999 21.3347 8.83275 21.3947 9.11918 21.3947C9.42559 21.3947 9.99844 21.3281 10.3715 20.8618C10.6912 20.4688 10.6912 20.0225 10.6912 19.836V17.4979H10.0517V19.8293H10.0584Z" fill="#0054A5"/>
<path d="M14.075 20.3622L12.3631 17.4979H11.5371V21.3147H12.1433V18.3772L13.9218 21.3147H14.6945V17.4979H14.075V20.3622Z" fill="#0054A5"/>
<path d="M17.2392 19.7827H18.0852V20.7486C17.9519 20.7885 17.7055 20.8485 17.3458 20.8485C16.9195 20.8485 16.6064 20.7353 16.4066 20.5088C16.1668 20.229 16.0802 19.7494 16.0802 19.3964C16.0802 19.07 16.1468 18.6037 16.4599 18.2573C16.633 18.0641 16.8928 17.9709 17.2459 17.9709C17.6855 17.9709 17.9586 18.1507 18.0186 18.4905V18.5504H18.7246V18.4705C18.7113 18.3306 18.6913 18.0908 18.4582 17.8377C18.0852 17.4713 17.6256 17.4247 17.3125 17.4247C16.9994 17.4247 16.5798 17.4713 16.24 17.6978C15.474 18.204 15.4141 19.1766 15.4141 19.4563C15.4141 20.0425 15.6072 20.5554 15.9536 20.9084C16.2667 21.2282 16.7263 21.388 17.3524 21.388C17.9786 21.388 18.4848 21.2282 18.698 21.1549L18.7446 21.1416V19.2099H17.2459V19.7694L17.2392 19.7827Z" fill="#0054A5"/>
<path d="M22.0887 20.3622L20.3701 17.4979H19.5508V21.3147H20.1503V18.3772L21.9355 21.3147H22.7015V17.4979H22.0887V20.3622Z" fill="#0054A5"/>
<path d="M24.6995 17.4979L23.0742 21.3147H23.7603L24.16 20.3555H25.792L26.1916 21.3147H26.9044L25.3457 17.4979H24.6995ZM25.5788 19.8027H24.3798L24.9926 18.264L25.5788 19.8027Z" fill="#0054A5"/>
<path d="M29.2689 20.3955L28.2698 17.4979H27.2373V21.3147H27.8768V18.3639L28.9292 21.3147H29.5221L30.6212 18.3239V21.3147H31.2606V17.4979H30.2948L29.2689 20.3955Z" fill="#0054A5"/>
<path d="M37.1158 20.3622L35.3973 17.4979H34.5713V21.3147H35.1841V18.3772L36.9626 21.3147H37.7287V17.4979H37.1158V20.3622Z" fill="#0054A5"/>
<path d="M40.3663 17.4979H39.7202L38.1016 21.3147H38.781L39.1807 20.3555H40.8126L41.2123 21.3147H41.925L40.3863 17.5446L40.3663 17.4979ZM40.6061 19.8027H39.4005L40.0133 18.264L40.5995 19.8027H40.6061Z" fill="#0054A5"/>
<path d="M41.5254 18.0774H42.771V21.3147H43.4238V18.0774H44.6694V17.4979H41.5254V18.0774Z" fill="#0054A5"/>
<path d="M45.7749 17.4979H45.1221V21.3147H45.7749V17.4979Z" fill="#0054A5"/>
<path d="M48.1865 17.4047C47.8202 17.4047 47.294 17.4913 46.8943 17.9242C46.5679 18.2773 46.4014 18.7835 46.4014 19.4363C46.4014 20.7086 47.0208 21.408 48.1466 21.408C49.2723 21.408 49.9384 20.6686 49.9384 19.3764C49.9384 18.0841 49.2989 17.4047 48.1865 17.4047ZM48.1599 20.8351C47.8135 20.8351 47.5537 20.7286 47.3872 20.5221C47.1807 20.2689 47.0741 19.8893 47.0741 19.403C47.0741 18.4505 47.4472 17.9709 48.1932 17.9709C48.9392 17.9709 49.2457 18.4305 49.2457 19.3697C49.2457 19.6561 49.2057 20.189 48.9259 20.5221C48.7527 20.7286 48.4863 20.8351 48.1599 20.8351Z" fill="#0054A5"/>
<path d="M53.1287 20.3622L51.4168 17.4979H50.5908V21.3147H51.197V18.3772L52.9755 21.3147H53.7415V17.4979H53.1287V20.3622Z" fill="#0054A5"/>
<path d="M56.38 17.4979H55.7405L54.1152 21.3147H54.7947L55.1943 20.3555H56.8263L57.226 21.3147H57.9387L56.4 17.5446L56.38 17.4979ZM56.6198 19.8027H55.4208L56.0403 18.264L56.6265 19.8027H56.6198Z" fill="#0054A5"/>
<path d="M58.9506 17.4979H58.2979V21.3147H60.6759V20.7219H58.9506V17.4979Z" fill="#0054A5"/>
<path d="M65.1259 19.8293C65.1259 20.0958 65.126 20.8018 64.1934 20.8018C63.8337 20.8018 63.5672 20.6886 63.4007 20.4688C63.3274 20.3622 63.2475 20.209 63.2475 19.8493V17.4979H62.5947V19.8093C62.5947 20.3422 62.6813 20.582 62.8212 20.7819C63.2275 21.3547 63.9736 21.3947 64.1934 21.3947C64.4998 21.3947 65.0727 21.3281 65.4457 20.8618C65.7654 20.4688 65.7654 20.0225 65.7654 19.836V17.4979H65.1259V19.8293Z" fill="#0054A5"/>
<path d="M69.0494 20.3622L67.3309 17.4979H66.5049V21.3147H67.111V18.3772L68.8896 21.3147H69.6556V17.4979H69.0494V20.3622Z" fill="#0054A5"/>
<path d="M71.1206 17.4979H70.4678V21.3147H71.1206V17.4979Z" fill="#0054A5"/>
<path d="M73.2194 20.5021L72.2135 17.4979H71.4941L72.8463 21.2748L72.8663 21.3147H73.5258L74.9513 17.4979H74.2785L73.2194 20.5021Z" fill="#0054A5"/>
<path d="M75.93 19.6495H77.6552V19.0833H75.93V18.0774H77.7418V17.4979H75.2705V21.3147H77.7817V20.7286H75.93V19.6495Z" fill="#0054A5"/>
<path d="M81.0724 20.1025V20.0825C81.0325 19.7028 80.9126 19.503 80.6461 19.3831C80.7327 19.3431 80.826 19.2898 80.9192 19.1966C81.1058 19.0167 81.2057 18.7703 81.2057 18.4971C81.2057 18.1574 81.0391 17.8643 80.7594 17.6912C80.4729 17.5046 80.0666 17.5046 79.8668 17.5046H78.4746V21.3215H79.1207V19.6628H79.7003C80.2931 19.6628 80.3863 19.7894 80.4463 20.289L80.4596 20.3756C80.4929 20.662 80.5462 21.0417 80.6195 21.2682L80.6328 21.3148H81.3322L81.2989 21.2282C81.159 20.8352 81.1257 20.5288 81.0724 20.1025ZM79.1141 18.0642H79.8535C80.1865 18.0642 80.5262 18.1241 80.5262 18.5904C80.5262 18.8568 80.373 18.9767 80.3064 19.0101C80.2265 19.0567 80.06 19.0833 79.8535 19.0833H79.1141V18.0642Z" fill="#0054A5"/>
<path d="M84.3233 19.3964C84.1035 19.2498 84.0036 19.2232 83.2242 19.03L83.1043 19.0033C82.6314 18.8901 82.4915 18.7835 82.4915 18.5237C82.4915 18.1974 82.7713 17.9975 83.2442 17.9975C83.7172 17.9975 83.9436 18.1574 83.957 18.4971V18.5637H84.5631L84.6364 18.5504V18.4771C84.6231 18.3173 84.6031 18.0575 84.3899 17.8177C84.0769 17.4846 83.5706 17.438 83.2908 17.438C82.5515 17.438 81.8054 17.791 81.8054 18.5837C81.8054 18.9168 81.9453 19.1765 82.2251 19.3631C82.4249 19.4963 82.6913 19.5629 83.2575 19.6961C83.8104 19.836 84.0569 19.9026 84.0569 20.249C84.0569 20.3889 83.9969 20.8352 83.2575 20.8352C82.4582 20.8352 82.4449 20.4222 82.4316 20.169V20.1024H81.7588V20.169C81.7588 20.3422 81.7588 20.662 81.9853 20.9617C82.2917 21.3481 82.8712 21.4014 83.1976 21.4014C84.1301 21.4014 84.7296 20.9218 84.7296 20.1824C84.7296 19.836 84.5898 19.5629 84.33 19.3897" fill="#0054A5"/>
<path d="M86.0014 17.4979H85.3486V21.3147H86.0014V17.4979Z" fill="#0054A5"/>
<path d="M91.3039 19.2431L90.2514 17.4979H89.6652H89.4454H86.4346V18.0774H87.6735V21.3147H88.3263V18.0774H89.6652V17.8376L90.9575 19.8227V21.3147H91.6169V19.8493L93.1223 17.4979H92.3763L91.3039 19.2431Z" fill="#0054A5"/>
<path d="M97.6717 19.0833H96.0463V17.4979H95.3936V21.3147H96.0463V19.6561H97.6717V21.3147H98.3244V17.4979H97.6717V19.0833Z" fill="#0054A5"/>
<path d="M100.749 17.4047C100.383 17.4047 99.8565 17.4913 99.4568 17.9242C99.1304 18.2773 98.9639 18.7835 98.9639 19.4363C98.9639 20.7086 99.5833 21.408 100.709 21.408C101.835 21.408 102.494 20.6686 102.494 19.3764C102.494 18.0841 101.861 17.4047 100.749 17.4047ZM100.722 20.8351C100.376 20.8351 100.116 20.7286 99.9497 20.5221C99.7432 20.2689 99.6366 19.8893 99.6366 19.403C99.6366 18.4505 100.01 17.9709 100.749 17.9709C101.488 17.9709 101.808 18.4305 101.808 19.3697C101.808 19.6561 101.762 20.189 101.488 20.5221C101.315 20.7286 101.055 20.8351 100.722 20.8351Z" fill="#0054A5"/>
<path d="M105.518 19.3964C105.298 19.2498 105.199 19.2232 104.413 19.03L104.293 19.0033C103.813 18.8901 103.673 18.7835 103.673 18.5237C103.673 18.1974 103.953 17.9975 104.426 17.9975C104.899 17.9975 105.119 18.1574 105.139 18.4971V18.5637H105.745L105.818 18.5504V18.4705C105.805 18.3106 105.785 18.0508 105.572 17.8177C105.259 17.4846 104.752 17.438 104.479 17.438C103.74 17.438 102.994 17.791 102.994 18.5837C102.994 18.9168 103.134 19.1765 103.407 19.3631C103.607 19.4963 103.873 19.5629 104.439 19.7028C104.999 19.8427 105.239 19.9093 105.239 20.2556C105.239 20.3955 105.179 20.8418 104.439 20.8418C103.64 20.8418 103.62 20.4088 103.613 20.1757V20.1091H102.94V20.1757C102.94 20.3489 102.94 20.6686 103.174 20.9684C103.48 21.3547 104.059 21.408 104.379 21.408C105.312 21.408 105.918 20.9284 105.918 20.189C105.918 19.8427 105.778 19.5695 105.518 19.3964Z" fill="#0054A5"/>
<path d="M107.857 17.4979H106.545V21.3147H107.198V19.6828H107.731C108.423 19.6828 108.69 19.5562 108.903 19.3497C109.109 19.1432 109.216 18.8834 109.216 18.5837C109.216 18.2839 109.116 18.0175 108.923 17.8243C108.65 17.5246 108.31 17.5046 107.857 17.5046M107.744 19.1232H107.204V18.0575H107.857C108.204 18.0575 108.537 18.0974 108.537 18.5637C108.537 19.0766 108.13 19.1232 107.751 19.1232" fill="#0054A5"/>
<path d="M110.348 17.4979H109.688V21.3147H110.348V17.4979Z" fill="#0054A5"/>
<path d="M113.912 17.4979H110.774V18.0774H112.02V21.3147H112.666V18.0774H113.912V17.4979Z" fill="#0054A5"/>
<path d="M115.704 17.4979H115.058L113.433 21.3147H114.112L114.512 20.3555H116.144L116.543 21.3147H117.256L115.711 17.5446L115.691 17.4979H115.704ZM115.944 19.8027H114.745L115.358 18.264L115.944 19.8027Z" fill="#0054A5"/>
<path d="M118.268 20.7219V17.4979H117.622V21.3147H120V20.7219H118.268Z" fill="#0054A5"/>
<path d="M53.5488 11.3364H65.0925V14.9401H67.5705V9.43799H53.5488V11.3364Z" fill="#0054A5"/>
<path d="M18.624 13.6678C18.624 14.114 18.7572 14.4404 19.0104 14.6536C19.2435 14.8468 19.5965 14.9467 20.0628 14.9467H30.9604C31.4333 14.9467 31.7731 14.8534 31.9862 14.6603C32.2593 14.4604 32.3992 14.1274 32.3992 13.6744V9.27808H18.624V13.6744V13.6678ZM21.102 11.1765H29.9279V13.0349H21.102V11.1765Z" fill="#0054A5"/>
<path d="M109.502 11.3298H111.966V8.37225H117.268V9.48466H113.625V11.3364H119.34C119.54 11.3364 119.726 11.1566 119.726 10.9501V1.62454H117.268V6.52712H114.764C115.197 6.00755 115.43 5.41471 115.43 4.72862C115.43 3.84935 115.064 3.08332 114.351 2.46384C113.698 1.90431 112.865 1.53128 111.886 1.3581C111.54 1.29148 111.167 1.25818 110.781 1.25818C110.168 1.25818 109.735 1.33811 109.715 1.33811C108.696 1.52462 107.85 1.90431 107.184 2.46384C106.464 3.08999 106.098 3.84935 106.098 4.72862C106.098 5.42138 106.331 6.01422 106.764 6.52712H104.466V8.37891H109.502V11.3364V11.3298ZM109.002 3.5163C109.502 3.18324 110.094 3.01005 110.761 3.01005C111.427 3.01005 111.98 3.18324 112.486 3.5163C112.999 3.84935 113.258 4.26234 113.258 4.73528C113.258 5.20822 112.999 5.60123 112.486 5.93428C111.986 6.28066 111.4 6.45385 110.767 6.45385C110.134 6.45385 109.515 6.28066 109.009 5.93428C108.502 5.60789 108.236 5.20156 108.236 4.73528C108.236 4.269 108.502 3.84935 109.009 3.5163" fill="#0054A5"/>
<path d="M54.0952 6.17402C54.295 6.90008 54.7347 7.5129 55.3741 7.94588C55.7205 8.18568 56.1268 8.37219 56.5665 8.49875C57.0061 8.61865 57.4724 8.69858 57.9453 8.72523C58.1652 8.73855 58.385 8.74521 58.6114 8.74521C58.9578 8.74521 59.2975 8.72523 59.6106 8.69192C60.2168 8.61865 60.6831 8.49875 61.0827 8.33222C61.3492 8.21898 61.589 8.09242 61.7955 7.95254C62.4283 7.51956 62.8746 6.90674 63.0677 6.18068C63.3009 5.34804 63.1277 4.53538 62.6148 3.92922H64.2334V2.02414H59.8104V0.818481H57.3392V2.0308H52.9229V3.92922H54.5415C54.0353 4.53538 53.8621 5.34804 54.0885 6.18068M60.35 6.6736C59.917 6.99334 59.3175 7.1532 58.5781 7.1532C57.8388 7.1532 57.2393 6.99334 56.8063 6.6736C56.3533 6.34721 56.0003 5.69442 56.1801 5.09492C56.3866 4.40882 57.0861 3.86927 57.912 3.76269C57.912 3.76269 58.1985 3.71607 58.5848 3.71607C58.8179 3.71607 59.0378 3.73605 59.2509 3.76269C59.9437 3.86927 60.743 4.32223 60.9828 5.09492C61.1693 5.70108 60.8096 6.34721 60.3567 6.68026" fill="#0054A5"/>
<path d="M82.4846 1.6178H71.9267V3.52954H82.0649C82.0649 3.52954 83.0707 3.58949 83.0707 4.64194V12.3622H80.5262V7.08657H78.0483V12.3622H75.9833V7.08657H73.5187V12.3622H70.9941V14.2539H85.5287V4.62196C85.5287 1.4979 82.4846 1.6178 82.4846 1.6178Z" fill="#0054A5"/>
<path d="M99.8897 2.74358H96.9588V1.62451H94.5009V3.20986H90.0912V1.62451H87.6266V6.93342C87.6266 6.93342 87.52 8.34558 89.0454 8.34558H96.9522V7.0733H99.8831V8.77855H102.341V1.62451H99.8831V2.74358H99.8897ZM94.5075 6.57372H90.1045V4.98838H94.5075V6.57372ZM99.8897 5.30811H96.9588V4.50211H99.8897V5.30811Z" fill="#0054A5"/>
<path d="M108.243 13.0617V9.84436H105.785V13.6545C105.785 13.6545 105.638 14.9401 107.23 14.9401H119.933V13.0617H108.249H108.243Z" fill="#0054A5"/>
<path d="M45.1087 1.95757V10.0175H39.7465C38.6074 10.0175 38.694 8.99837 38.694 8.99837V3.52959H43.2636V1.62451H36.2094V8.86514C36.2094 8.86514 36.0362 11.9226 39.5067 11.9226H45.102V14.9467H47.3801V3.52959H48.6391V14.9401H50.9305V1.62451H45.5017C45.3019 1.62451 45.102 1.77106 45.102 1.95757" fill="#0054A5"/>
<path d="M65.0928 1.97755V8.19237H67.5707V3.52959H69.7289V1.62451H65.4658C65.2726 1.62451 65.0928 1.78438 65.0928 1.98421" fill="#0054A5"/>
<path d="M29.9353 2.01086V6.28063H21.1226C20.0502 6.28063 20.1501 5.34141 20.1501 5.34141V1.62451H17.6722V5.41469C17.6722 5.41469 17.5789 8.20569 20.8029 8.20569H32.4065V3.52959H34.5647V1.62451H30.3083C30.0885 1.62451 29.9286 1.80436 29.9286 2.01752" fill="#0054A5"/>
<path d="M4.43669 4.0425C3.97041 4.10245 3.13777 4.18238 2.23186 4.20903C1.69897 4.22235 1.30596 4.20237 0.693142 4.20903V5.88097C1.31263 5.87431 1.80555 5.89429 2.37174 5.88097C3.29098 5.85432 4.10363 5.78771 4.64318 5.72776C6.16858 5.55457 7.37424 5.03501 7.90047 4.58871C8.4267 5.02834 9.63236 5.55457 11.1644 5.72776C11.704 5.78771 12.51 5.86098 13.4292 5.88097C14.0021 5.89429 14.495 5.87431 15.1145 5.88097V4.20903C14.5016 4.20237 14.1086 4.22235 13.5757 4.20903C12.6698 4.18238 11.8438 4.10911 11.3709 4.0425C10.5249 3.94258 9.91879 3.6828 9.69231 3.45632H15.2344V1.75774H9.13944V0.592041H6.67482V1.75774H0.573242V3.45632H6.11529C5.88881 3.6828 5.28931 3.94258 4.43669 4.0425Z" fill="#0054A5"/>
<path d="M0 7.97922H6.67444V8.81852C5.6353 8.99837 4.7627 9.35807 4.08326 9.87764C3.31057 10.4838 2.92423 11.2165 2.92423 12.0625C2.92423 13.075 3.4438 13.8676 4.49625 14.5071C5.44213 15.0866 6.60783 15.3797 7.95337 15.3797C9.29892 15.3797 10.3714 15.0866 11.3239 14.5071C12.3764 13.861 12.8959 13.0616 12.8959 12.0625C12.8959 11.2165 12.5096 10.4771 11.7369 9.87764C11.0508 9.34475 10.1782 8.99171 9.14571 8.81186V7.97256H15.8202V6.18738H0V7.97256V7.97922ZM10.3913 12.0691C10.3913 12.4821 10.1316 12.8352 9.61865 13.1283C9.11241 13.4347 8.53289 13.5879 7.89342 13.5879C7.25396 13.5879 6.64113 13.4347 6.13489 13.1283C5.62198 12.8418 5.3622 12.4821 5.3622 12.0758C5.3622 11.6695 5.62198 11.2965 6.13489 10.9967C6.64113 10.7036 7.22731 10.5504 7.89342 10.5504C8.55953 10.5504 9.11241 10.7036 9.61865 10.9967C10.1316 11.2965 10.3913 11.6628 10.3913 12.0758" fill="#0054A5"/>
<path d="M100.956 9.87761C100.257 9.33806 99.3709 8.97836 98.3317 8.80517C97.9654 8.74522 97.559 8.71191 97.146 8.71191C96.4933 8.71191 96.027 8.79185 96.007 8.79185C94.9212 8.9717 94.0087 9.33806 93.3026 9.87761C92.5366 10.4838 92.1436 11.2165 92.1436 12.0691C92.1436 13.0749 92.6565 13.8743 93.7156 14.5137C94.6615 15.0933 95.8272 15.3864 97.1727 15.3864C98.5182 15.3864 99.5907 15.0933 100.537 14.5137C101.596 13.8676 102.102 13.0683 102.102 12.0691C102.102 11.2232 101.716 10.4838 100.95 9.87761M98.838 13.1216C98.3317 13.428 97.7522 13.5812 97.1127 13.5812C96.4733 13.5812 95.8605 13.428 95.3542 13.1216C94.848 12.8351 94.5815 12.4754 94.5815 12.0691C94.5815 11.6628 94.8413 11.2898 95.3542 10.99C95.8605 10.6969 96.4466 10.5437 97.1127 10.5437C97.7789 10.5437 98.3384 10.6969 98.838 10.99C99.3509 11.2898 99.6107 11.6561 99.6107 12.0691C99.6107 12.4821 99.3509 12.8351 98.838 13.1282" fill="#0054A5"/>
</g>
<defs>
<clipPath id="clip0_5980_22767">
<rect width="120" height="20.816" fill="white" transform="translate(0 0.592041)"/>
</clipPath>
</defs>
</svg>
