<svg width="86" height="59" viewBox="0 0 86 59" fill="none" xmlns="http://www.w3.org/2000/svg">
<path d="M30.8716 1.22771C30.2725 1.40345 29.7692 1.59517 29.3619 1.80286C28.1317 2.39398 27.1491 3.41646 26.6699 4.68657C24.4971 9.51139 24.4572 27.1092 26.55 32.4133C26.6219 32.653 26.7098 32.8766 26.8216 33.1003C32.0858 25.6154 39.1074 12.0916 30.8716 1.21973V1.22771Z" fill="#00A0B0"/>
<path d="M35.5283 36.9989C42.2144 37.7338 51.7202 37.3903 55.7542 35.9445C57.5835 35.4492 59.0214 34.0353 59.5166 32.246C59.964 31.0078 60.3155 29.1866 60.5631 27.0377C55.8181 26.6783 44.7306 27.1176 35.5283 36.9989Z" fill="#00A0B0"/>
<path d="M31.6469 36.3585C31.1037 36.2307 30.6165 36.0869 30.1931 35.9351C29.8177 35.8313 29.4662 35.6795 29.1387 35.5038C41.8318 19.2639 42.0395 7.12198 40.2262 0.0524921C46.5288 -0.171175 53.5344 0.372017 56.3782 1.67408C57.8639 2.28118 59.0142 3.51135 59.4775 5.04507C60.6039 7.97671 61.0991 14.479 60.9713 20.566C46.7605 20.4382 36.4079 30.5671 31.6469 36.3585ZM48.8773 19.2479C51.5933 19.3997 53.9178 17.3308 54.0776 14.6148C54.2293 11.8909 52.1604 9.57433 49.4445 9.41457C46.7285 9.26279 44.404 11.3317 44.2442 14.0477C44.0924 16.7636 46.1614 19.0882 48.8773 19.2479Z" fill="#00A0B0"/>
<path d="M11.9582 52.3H0V50.7583H8.99462C9.09847 50.3749 9.17036 49.9915 9.21829 49.6001C9.25823 49.2406 9.2742 48.7693 9.2742 48.1942V46.7164H0.607097V45.1986H11.3431V47.8187C11.3431 48.4498 11.3192 48.977 11.2712 49.4083C11.2153 49.8796 11.1195 50.335 10.9917 50.7583H11.9582V52.3ZM2.67602 56.7255H11.3431V58.2432H2.43638C1.77336 58.2432 1.30206 58.1234 1.01449 57.8917C0.742895 57.6601 0.607097 57.2766 0.607097 56.7574V53.7139H2.66803V56.7334L2.67602 56.7255Z" fill="#636466"/>
<path d="M19.6199 55.8787V53.0589H21.6808V55.8787H26.7213V57.3965H14.6113V55.8787H19.6119H19.6199ZM25.7787 45.1986V49.5681H17.3592V51.2536H26.1621V52.7474H17.1755C16.5365 52.7474 16.0652 52.6196 15.7536 52.356C15.4501 52.1083 15.2903 51.7249 15.2903 51.2216V48.0823H23.7098V46.6924H15.2903V45.1986H25.7707H25.7787Z" fill="#636466"/>
<path d="M31.9999 45.0238V45.9344H38.606V45.0238H40.667V50.256H36.4732V51.1507H41.3619V52.6684H29.252V51.1507H34.4123V50.256H31.8241C31.1611 50.256 30.6818 50.1282 30.3703 49.8806C30.0827 49.6329 29.9389 49.2415 29.9389 48.7223V45.0318H31.9999V45.0238ZM40.667 53.7309V58.348H38.606V55.2726H29.9389V53.7309H40.667ZM31.9999 47.4202V48.7383H38.606V47.4202H31.9999Z" fill="#636466"/>
<path d="M51.6655 45.2015V46.6713H49.0693V49.7467C49.0693 51.3763 49.4288 52.7742 50.1477 53.9405C50.7628 54.931 51.5856 55.6739 52.6161 56.1771L51.4179 57.3913C50.5871 56.92 49.9081 56.3928 49.3809 55.8097C48.7658 55.1467 48.3185 54.4038 48.0469 53.589C47.7833 54.3878 47.3279 55.1307 46.6809 55.8097C46.1457 56.3688 45.4747 56.8961 44.6519 57.3913L43.6055 56.1771C44.564 55.6659 45.3389 54.915 45.938 53.9245C46.6569 52.7502 47.0164 51.3603 47.0164 49.7627V46.6793H44.4043V45.2094H51.6735L51.6655 45.2015ZM55.4518 44.9219V58.3659H53.3909V44.9219H55.4518Z" fill="#636466"/>
<path d="M70.7024 52.0045H58.6084V50.4867H62.5865V48.1782H64.6474V50.4867H67.611C67.7228 50.0793 67.8107 49.608 67.8666 49.0728C67.9225 48.5936 67.9465 48.0663 67.9465 47.4912V46.7164H59.2794V45.1986H70.0074V46.6365C70.0074 47.2835 69.9755 47.9305 69.9116 48.5936C69.8477 49.3524 69.7518 49.9835 69.632 50.4867H70.6944V52.0045H70.7024ZM68.7453 53.7219C69.6719 54.2811 70.1432 54.9601 70.1432 55.7589C70.1432 56.5577 69.6799 57.2287 68.7453 57.7879C67.7228 58.411 66.3569 58.7225 64.6554 58.7225C62.9539 58.7225 61.58 58.411 60.5655 57.7879C59.6548 57.2287 59.1915 56.5497 59.1915 55.7589C59.1915 54.9681 59.6469 54.2811 60.5655 53.7219C61.588 53.1068 62.9539 52.7953 64.6554 52.7953C66.3569 52.7953 67.7228 53.1068 68.7453 53.7219ZM62.1232 54.7684C61.556 55.04 61.2764 55.3675 61.2764 55.7589C61.2764 56.1503 61.556 56.4778 62.1232 56.7494C62.7462 57.045 63.593 57.1968 64.6554 57.1968C65.7178 57.1968 66.5566 57.045 67.1956 56.7494C67.7788 56.4698 68.0743 56.1343 68.0743 55.7589C68.0743 55.3835 67.7788 55.032 67.1956 54.7684C66.5566 54.4728 65.7098 54.321 64.6554 54.321C63.601 54.321 62.7462 54.4728 62.1232 54.7684Z" fill="#636466"/>
<path d="M80.8306 46.6952H75.8061V50.889H82.5161V44.9219H84.577V49.0118H85.9989V50.6014H84.577V54.6674H82.5161V52.3508H75.4626C74.8794 52.3508 74.4401 52.207 74.1525 51.9195C73.8809 51.6479 73.7451 51.2405 73.7451 50.7053V45.2015H80.8306V46.6952ZM76.4691 56.7283H84.6569V58.2461H76.2374C75.5744 58.2461 75.1031 58.1262 74.8155 57.8946C74.5439 57.6629 74.4081 57.2795 74.4081 56.7603V53.8366H76.4691V56.7283Z" fill="#636466"/>
</svg>
