<svg width="62" height="50" viewBox="0 0 62 50" fill="none" xmlns="http://www.w3.org/2000/svg">
<g clip-path="url(#clip0_5980_22709)">
<path d="M3.1484 3.94125H30.3382V0.973251H3.09579V0.966675C1.48466 0.966675 0.173828 2.2775 0.173828 3.89083H0.17602V9.18675H0.173828C0.173828 10.8023 1.48466 12.1087 3.09579 12.1087V12.0999V12.1131H10.1059V32.4682C10.1037 34.0793 11.4101 35.3902 13.0256 35.3902V35.3792H21.2435V32.4134H13.0739V9.1473H3.14402V3.94782L3.1484 3.93906V3.94125Z" fill="#ED1C24"/>
<path d="M61.8266 18.1762C61.8266 8.13897 53.6898 0 43.6503 0C33.6109 0 25.4697 8.13897 25.4697 18.1762C25.4697 28.2135 33.6087 36.3569 43.6503 36.3569C47.5609 36.3569 51.1821 35.1162 54.1479 33.014L56.4846 35.9185L58.806 34.0508L56.4342 31.0982C59.7639 27.8036 61.8266 23.2332 61.8266 18.1762ZM43.6482 33.3976C35.2418 33.3976 28.4268 26.5826 28.4268 18.1762C28.4268 9.76984 35.2418 2.95923 43.6503 2.95923C52.0589 2.95923 58.8695 9.77203 58.8695 18.1784C58.8695 22.2994 57.2255 26.0346 54.5622 28.7725L53.3566 27.2709L51.0331 29.1385L52.2891 30.7036C49.834 32.4025 46.8617 33.3998 43.6503 33.3998L43.6482 33.3976Z" fill="#2E3192"/>
<path d="M52.7848 18.196C52.7848 23.2201 48.7121 27.2951 43.6879 27.2951C38.6638 27.2951 34.5889 23.2201 34.5889 18.196C34.5889 13.1719 38.6638 9.09912 43.6879 9.09912C48.7121 9.09912 52.7848 13.1719 52.7848 18.196Z" fill="url(#paint0_radial_5980_22709)"/>
<path d="M16.2894 39.2175H9.7002C9.96324 39.5726 10.1167 40.1579 10.1167 40.855V47.6875C10.1167 48.3626 10.0465 49.1474 9.78568 49.6033H15.7589C20.1035 49.6033 23.2535 47.3302 23.2535 44.1978C23.2535 40.2565 18.6984 39.2153 16.2872 39.2153L16.2894 39.2175ZM21.0527 44.4696C21.0527 44.4696 21.0395 44.5551 21.0483 44.5419C20.9935 48.0119 17.2342 48.9304 15.257 48.9304C13.9703 48.9304 12.4183 48.8142 12.403 48.8142L12.1618 48.7945V40.1184L12.4008 40.1031C12.4161 40.0987 13.9659 39.9869 15.257 39.9869C18.0584 39.9869 21.0527 41.1597 21.0527 44.4477V44.4696Z" fill="#231F20"/>
<path d="M33.3807 40.3354V39.1978H22.8896V40.3354C24.7375 40.1579 27.2847 40.1294 27.2847 40.1294V45.7387C27.2847 48.6169 27.1663 48.9676 27.1334 49.6055H29.4504C29.4131 48.8054 29.3035 48.5511 29.3035 45.7387V40.1381C29.3035 40.1381 31.3421 40.1074 33.3807 40.3354Z" fill="#231F20"/>
<path d="M39.902 48.6607C39.9283 48.698 40.3447 49.6778 41.4977 49.6778C42.3614 49.6778 42.8151 49.3403 42.9554 49.2153V49.0706C42.7319 49.0706 42.4381 49.0356 42.186 48.8909C41.8901 48.7155 41.7411 48.4349 41.7411 48.0579V43.6125C41.7411 42.1943 40.222 40.9908 38.4267 40.9908C36.6315 40.9908 35.5705 41.5104 34.275 42.4617C34.2882 42.4748 34.7704 42.9746 34.8581 43.0426C35.1694 42.6962 36.3443 41.7317 37.6113 41.7317C39.229 41.7317 39.7529 42.5406 39.7529 43.2048C39.7529 43.6826 39.1041 44.1474 38.1045 44.3929C37.3132 44.5836 34.2948 45.3245 33.8366 46.7997C33.613 47.5253 33.7577 48.4152 34.4044 49.0027C34.9304 49.4827 35.6472 49.7589 36.364 49.7589C38.0059 49.7589 39.4833 48.6695 39.5359 48.6257L39.7551 48.4459L39.9063 48.6651L39.902 48.6607ZM39.7595 47.0299C39.7595 48.1478 38.6043 48.7111 37.6354 48.7111C36.1273 48.7111 35.45 48.0601 35.45 47.1022C35.45 46.5652 35.9519 45.627 37.3373 45.2258C38.6547 44.8444 39.3934 44.6822 39.3978 44.6822L39.6477 44.623L39.7595 44.6011V47.0277V47.0299Z" fill="#231F20"/>
<path d="M51.0194 49.7107H51.0786L51.9116 49.6822C54.5946 49.634 57.7796 49.9299 58.4701 50C58.514 49.9365 59.4412 48.6278 59.599 48.4064C58.7902 48.4678 57.7533 48.516 56.4907 48.5445L55.8616 48.5599L56.3329 48.2092C57.6722 47.214 58.4109 45.8001 58.4109 44.2285C58.4109 40.9996 55.3947 38.744 51.072 38.744C46.7494 38.744 43.7354 40.9996 43.7354 44.2285C43.7354 47.4573 46.7318 49.6997 51.0172 49.7129L51.0194 49.7107ZM51.0742 39.4235C54.154 39.4235 56.3044 41.4007 56.3044 44.2263C56.3044 47.0518 54.154 49.0268 51.0742 49.0268C47.9945 49.0268 45.8485 47.0518 45.8485 44.2263C45.8485 41.4007 47.9966 39.4235 51.0742 39.4235Z" fill="#231F20"/>
<path d="M49.8579 30.2499C49.8579 30.8834 47.1157 31.3942 43.7312 31.3942C40.3467 31.3942 37.6045 30.8813 37.6045 30.2499C37.6045 29.6186 40.3467 29.1057 43.7312 29.1057C47.1157 29.1057 49.8579 29.6186 49.8579 30.2499Z" fill="url(#paint1_radial_5980_22709)"/>
</g>
<defs>
<radialGradient id="paint0_radial_5980_22709" cx="0" cy="0" r="1" gradientUnits="userSpaceOnUse" gradientTransform="translate(41.2671 13.7825) scale(12.2969 12.2969)">
<stop stop-color="white"/>
<stop offset="0.51" stop-color="#00AEEF"/>
<stop offset="1" stop-color="#2E3192"/>
</radialGradient>
<radialGradient id="paint1_radial_5980_22709" cx="0" cy="0" r="1" gradientUnits="userSpaceOnUse" gradientTransform="translate(43.7487 29.1462) scale(12.2753 2.33231)">
<stop stop-color="#034EA2"/>
<stop offset="0.7" stop-color="white"/>
</radialGradient>
<clipPath id="clip0_5980_22709">
<rect width="61.6528" height="50" fill="white" transform="translate(0.173828)"/>
</clipPath>
</defs>
</svg>
