<svg width="114" height="40" viewBox="0 0 114 40" fill="none" xmlns="http://www.w3.org/2000/svg">
<g clip-path="url(#clip0_5980_22669)">
<path d="M48.0111 34.1247C46.8784 34.4631 46.0351 34.4827 45.4222 34.4827C43.6375 34.4827 41.5781 33.4236 41.5781 30.4425C41.5781 27.4613 43.3531 26.3336 45.8047 26.3336C46.2459 26.3336 47.1775 26.3925 47.8297 26.6866L47.6875 28.4028C47.1334 28.0203 46.4764 27.8977 46.0547 27.8977C44.6083 27.8977 43.4168 28.6087 43.4168 30.4474C43.4168 31.9919 44.3484 32.9284 45.6527 32.9284C45.8929 32.9284 46.1234 32.8842 46.2852 32.7911V31.2319H45.2408V29.7413H48.0111V34.1198V34.1247Z" fill="#231F20"/>
<path d="M51.1489 31.3839L48.6729 26.4758H50.7273L52.0413 29.6335L53.3358 26.4758H55.3902L52.9337 31.3839V34.3503H51.1489V31.3839Z" fill="#231F20"/>
<path d="M55.9785 26.4758H60.6954V27.9664H57.7633V29.5893H60.5336V31.0799H57.7633V32.8646H60.8032V34.3552H55.9785V26.4807V26.4758Z" fill="#231F20"/>
<path d="M63.3777 30.413C63.3777 29.0499 63.8092 27.8977 64.8928 27.8977C65.9764 27.8977 66.4079 29.0499 66.4079 30.413C66.4079 31.7761 65.9764 32.9284 64.8928 32.9284C63.8092 32.9284 63.3777 31.7075 63.3777 30.413ZM61.5391 30.413C61.5391 32.9185 62.7109 34.4876 64.8977 34.4876C67.0845 34.4876 68.2515 32.9185 68.2515 30.413C68.2515 27.9075 67.0992 26.3385 64.8977 26.3385C62.6962 26.3385 61.5391 27.883 61.5391 30.413Z" fill="#231F20"/>
<path d="M69.1777 26.4758H71.4528L73.7132 31.8252H73.7328L73.7034 26.4758H75.3361V34.3503H73.1199L70.7811 28.9666H70.7615L70.8203 34.3503H69.1826V26.4758H69.1777Z" fill="#231F20"/>
<path d="M82.7005 34.1247C81.5679 34.4631 80.7246 34.4827 80.1117 34.4827C78.3269 34.4827 76.2676 33.4236 76.2676 30.4425C76.2676 27.4613 78.0425 26.3336 80.4941 26.3336C80.9354 26.3336 81.867 26.3925 82.5142 26.6866L82.372 28.4028C81.818 28.0203 81.1658 27.8977 80.7393 27.8977C79.2928 27.8977 78.1014 28.6087 78.1014 30.4474C78.1014 31.9919 79.033 32.9284 80.3372 32.9284C80.5775 32.9284 80.8079 32.8842 80.9697 32.7911V31.2319H79.9253V29.7413H82.6956V34.1198L82.7005 34.1247Z" fill="#231F20"/>
<path d="M83.9072 26.4758H86.1774L88.4427 31.8252H88.4623L88.4328 26.4758H90.0607V34.3503H87.8445L85.5057 28.9666H85.486L85.5449 34.3503H83.9072V26.4758Z" fill="#231F20"/>
<path d="M95.1258 31.1828H93.4489L94.3119 28.1037H94.3315L95.1258 31.1828ZM90.6934 34.3552H92.5026L93.0322 32.6734H95.5426L96.0427 34.3552H97.9991L95.42 26.4807H93.2332L90.6934 34.3552Z" fill="#231F20"/>
<path d="M98.5625 26.4758H101.372L102.789 31.7075H102.809L104.294 26.4758H106.996V34.3503H105.25L105.28 28.3047H105.26L103.554 34.3503H101.911L100.284 28.3047H100.264L100.303 34.3503H98.5576V26.4758H98.5625Z" fill="#231F20"/>
<path d="M85.5796 10.8102H79.6271V5.24023H77.2344V12.6979H85.5796V10.8102Z" fill="#231F20"/>
<path d="M52.6054 13.8551H55.008V5H52.6054V6.7063H50.0312V8.59402H52.6054V9.83452H50.0312V11.7271H52.6054V13.8551Z" fill="#231F20"/>
<path d="M101.887 18.925V14.3601H105.932V12.4724H97.298V7.44666H105.932V5.56384H94.9003V14.3601H99.4897V18.925H93.7383V20.8176H107.094V18.925H101.887Z" fill="#231F20"/>
<path d="M89.3888 5H86.9961V13.5903H89.3888V9.58936H91.4874V7.70164H89.3888V5Z" fill="#231F20"/>
<path d="M79.9209 14.6445V21.5531H89.3889V14.6445H79.9209ZM82.3185 19.6654V16.5322H86.9913V19.6654H82.3185Z" fill="#231F20"/>
<path d="M49.938 13.6295C47.2756 13.6295 45.1182 15.5859 45.1182 17.9933C45.1182 20.4008 47.2756 22.3571 49.938 22.3571C52.6004 22.3571 54.7578 20.4057 54.7578 17.9933C54.7578 15.581 52.6004 13.6295 49.938 13.6295ZM49.938 20.3321C48.6484 20.3321 47.6041 19.2878 47.6041 17.9933C47.6041 16.6989 48.6484 15.6545 49.938 15.6545C51.2275 15.6545 52.267 16.7038 52.267 17.9933C52.267 19.2829 51.2226 20.3321 49.938 20.3321Z" fill="#231F20"/>
<path d="M66.7075 13.6295C64.05 13.6295 61.8926 15.5859 61.8926 17.9933C61.8926 20.4008 64.05 22.3571 66.7075 22.3571C69.365 22.3571 71.5224 20.4057 71.5224 17.9933C71.5224 15.581 69.365 13.6295 66.7075 13.6295ZM66.7075 20.3321C65.418 20.3321 64.3785 19.2878 64.3785 17.9933C64.3785 16.6989 65.4229 15.6545 66.7075 15.6545C67.9921 15.6545 69.0365 16.7038 69.0365 17.9933C69.0365 19.2829 67.9921 20.3321 66.7075 20.3321Z" fill="#231F20"/>
<path d="M48.8842 9.18728C48.8842 9.18728 49.5216 7.5104 49.4824 5.44617H41.5785V7.37801H46.5993C46.5993 7.37801 46.7758 11.227 41.2598 12.036L42.2159 13.6982C43.9663 13.5511 47.4868 12.6636 48.8842 9.18728Z" fill="#231F20"/>
<path d="M67.0457 13.203L68.0214 11.5898C64.2754 10.3444 64.2951 6.58372 64.2951 6.18657V5.32361H61.3532V6.20618C61.3532 6.5543 61.4953 10.6092 57.6758 12.0507L58.7054 13.6001C58.7054 13.6001 61.3728 12.8402 62.9075 10.1974C64.2411 12.5362 67.0506 13.2079 67.0506 13.2079L67.0457 13.203Z" fill="#231F20"/>
<path d="M71.8508 5H69.4531V13.8502H71.8508V9.58936H73.9444V7.70164H71.8508V5Z" fill="#231F20"/>
<path d="M18.3812 -0.000400895C12.0574 -0.119552 6.43523 3.03575 3.12988 7.90771C3.19166 7.97832 3.24462 8.04452 3.29316 8.1063C3.32847 8.14602 3.35936 8.19015 3.39025 8.22104C3.4079 8.22104 3.42555 8.22545 3.43879 8.22986C3.67268 8.27399 4.02572 8.33578 4.33022 8.60938C4.51998 8.78149 4.64355 8.97566 4.74063 9.1257C4.78035 9.1919 4.84213 9.28016 4.86861 9.30664C4.92157 9.35518 5.001 9.41696 5.08485 9.48316C5.22165 9.58466 5.37611 9.70381 5.52615 9.85826C5.65412 9.98624 5.76886 10.1142 5.87919 10.2422C5.95421 10.3349 6.02923 10.4187 6.10425 10.4982C6.16162 10.5599 6.24106 10.6305 6.3249 10.7056C6.44847 10.8159 6.58968 10.9439 6.72207 11.0983C6.89418 11.2925 6.99568 11.4955 7.0707 11.6588C7.10159 11.7206 7.15014 11.8088 7.16779 11.8397C7.29135 11.9809 7.40609 12.131 7.51641 12.2722L7.69294 12.4928C7.72383 12.5325 7.79885 12.5943 7.86946 12.6517C8.00185 12.7664 8.16954 12.9077 8.31517 13.1018C8.4255 13.2475 8.51817 13.3887 8.60643 13.5255C8.67262 13.627 8.73441 13.7196 8.79178 13.8035C8.93299 13.9977 9.01684 14.1918 9.09186 14.3551C9.13158 14.4434 9.16688 14.5316 9.20219 14.5758C9.23308 14.6199 9.29927 14.6861 9.36988 14.7567C9.48462 14.8759 9.63025 15.0215 9.75381 15.2112C9.8862 15.4098 9.96564 15.6128 10.0274 15.7717C10.0495 15.8335 10.076 15.8997 10.098 15.9482C10.1201 15.9659 10.151 15.9835 10.1775 16.0012C10.3407 16.1115 10.5923 16.2792 10.7688 16.566C10.8659 16.7249 10.9321 16.8882 10.985 17.025L11.3293 17.2589C11.8897 17.6384 12.128 17.4398 11.8544 16.822L8.68586 9.60231C8.41667 8.98007 8.52699 8.91829 8.93299 9.45668L13.6549 15.7055C14.0653 16.2439 14.3478 16.138 14.2904 15.4628L13.6284 7.62528C13.5711 6.95009 13.699 6.92361 13.9153 7.56791L16.2012 14.9685C16.4175 15.6128 16.6999 15.5952 16.8323 14.9288L18.1121 7.29872C18.2444 6.63235 18.3768 6.64559 18.4077 7.32078L18.7343 15.123C18.7652 15.7982 19.0609 15.8732 19.4007 15.2863L23.3018 8.53436C23.6416 7.94743 23.7607 8.00039 23.5665 8.6491L21.36 16.1027C21.1659 16.7514 21.4306 16.9191 21.9381 16.4734L27.7898 11.394C28.2973 10.9483 28.3988 11.041 28.006 11.5882L24.6389 16.3101C24.811 16.3057 24.9831 16.2968 25.1155 16.2262C25.3891 16.0806 25.548 15.7055 25.8304 15.5643C26.1128 15.4275 26.4835 15.476 26.7704 15.3525C27.0572 15.2245 27.2558 14.8891 27.5427 14.7699C27.8295 14.6552 28.134 14.5714 28.4208 14.4654C28.7386 14.3507 29.0343 14.1654 29.3432 14.0639C29.6565 13.958 29.9919 13.9138 30.3008 13.8167C30.6097 13.7196 30.9848 13.8565 31.2849 13.7682C31.6159 13.6755 31.8674 13.3225 32.1851 13.243C32.5073 13.1592 32.8515 13.2077 33.156 13.1371C33.487 13.0577 33.8224 13.0709 34.1313 13.0047C34.4667 12.9341 34.7579 12.7576 35.0624 12.7002C35.1198 12.687 35.1816 12.6826 35.2434 12.6826C33.0016 5.47173 26.3511 0.158467 18.3812 -0.000400895Z" fill="#F15A38"/>
<path d="M15.6539 34.8624C15.6539 34.8624 15.6627 34.8271 15.6671 34.8094C15.6539 34.7873 15.6406 34.7565 15.623 34.7344C15.5392 34.5843 15.42 34.3725 15.3626 34.1077C15.3406 34.0062 15.3097 33.8915 15.27 33.7679C15.2258 33.6311 15.1817 33.4811 15.142 33.3178C15.0934 33.106 15.089 32.9074 15.0802 32.7485C15.0802 32.6514 15.0714 32.5499 15.0625 32.5014C15.0228 32.3337 14.9963 32.1748 14.9787 32.0292C14.961 31.9101 14.9478 31.7953 14.9213 31.7026C14.9037 31.6232 14.8595 31.5261 14.8198 31.4202C14.7669 31.2834 14.7007 31.1245 14.6521 30.9436L14.6036 30.7715L14.4491 30.1802C14.4227 30.0875 14.3829 29.9772 14.3388 29.8668C14.2903 29.7389 14.2373 29.5932 14.1932 29.4388C14.1137 29.1652 14.1226 28.9092 14.1314 28.7239C14.1314 28.6665 14.1314 28.6047 14.1314 28.5694C14.0961 28.4635 14.0564 28.3488 14.0078 28.2296C13.9593 28.1016 13.9107 27.9737 13.8622 27.8324C13.849 27.806 13.8048 27.7442 13.7695 27.6956C13.6636 27.5544 13.5224 27.3558 13.4341 27.0999C13.4121 27.0293 13.3635 26.9322 13.3106 26.8307C13.2444 26.6983 13.165 26.5438 13.1032 26.3673C13.0546 26.2305 13.0017 26.0937 12.9443 25.9481L12.8207 25.6259C12.706 25.317 12.7281 25.0214 12.7413 24.8316C12.7413 24.8051 12.7457 24.7742 12.7457 24.7477C12.7148 24.6816 12.6751 24.6065 12.6266 24.5227C12.556 24.3903 12.4677 24.2358 12.3971 24.0637C12.3794 24.0152 12.3221 23.9357 12.2691 23.8519C12.1808 23.7195 12.0705 23.5562 11.9823 23.3532C11.9117 23.1855 11.8631 23.0267 11.819 22.8855C11.7837 22.7751 11.7528 22.6692 11.7219 22.5942C11.6645 22.4618 11.616 22.3338 11.563 22.2103C11.5101 22.0867 11.4659 21.9675 11.413 21.8616L11.2629 21.5351C11.1967 21.385 11.135 21.2438 11.0688 21.1114C11.0467 21.0629 10.9805 20.979 10.9231 20.8996C10.8261 20.776 10.7069 20.6216 10.6098 20.4274C10.5039 20.2156 10.4509 20.0126 10.4068 19.8493C10.3936 19.7963 10.3759 19.7302 10.3627 19.6904C10.3362 19.6684 10.3053 19.6419 10.2788 19.6198C10.1288 19.5007 9.92139 19.333 9.77576 19.0682C9.63013 18.8122 9.59041 18.5519 9.55511 18.3665C9.54628 18.318 9.53746 18.2518 9.52863 18.2209C9.43154 18.0532 9.36976 17.8855 9.31681 17.7487C9.29033 17.6781 9.26385 17.6075 9.23737 17.5545C9.21089 17.5369 9.18 17.5148 9.15352 17.4972C8.98583 17.3868 8.75635 17.2324 8.58425 16.9632C8.46068 16.7734 8.38566 16.5793 8.32829 16.4248C8.2974 16.3454 8.2621 16.2483 8.23562 16.2174C8.20031 16.1644 8.12971 16.0938 8.0591 16.0188C7.94877 15.9041 7.82079 15.7761 7.70606 15.6084C7.57808 15.4186 7.49423 15.2333 7.42362 15.0833C7.38832 15.0038 7.34419 14.9067 7.32212 14.8714C7.22945 14.7434 7.1456 14.6155 7.075 14.5051C7.00439 14.3948 6.93378 14.2889 6.86759 14.2051C6.83669 14.1609 6.75726 14.0947 6.67783 14.0285C6.55867 13.9226 6.40863 13.7947 6.27183 13.627L6.08648 13.3931C5.97616 13.2563 5.87466 13.1283 5.77316 13.0047C5.60988 12.8105 5.51279 12.6164 5.43777 12.4575C5.40688 12.4001 5.37157 12.3207 5.34951 12.2986C5.2789 12.2192 5.19064 12.1398 5.09355 12.0559C4.99206 11.9633 4.87732 11.8573 4.76258 11.7382C4.66549 11.6323 4.57723 11.5352 4.49339 11.4337C4.3963 11.3234 4.30804 11.2175 4.22419 11.1336C4.16241 11.0718 4.06974 11.0012 3.97265 10.9262C3.85791 10.8379 3.72993 10.7408 3.60196 10.6217C3.42102 10.4452 3.30187 10.2598 3.20479 10.1142C3.18713 10.0833 3.16507 10.0524 3.14742 10.0215C3.12977 10.0215 3.11211 10.0171 3.09446 10.0127C2.87822 9.97298 2.55166 9.91562 2.27805 9.67731C2.2251 9.63318 2.17656 9.58905 2.13243 9.54492C0.857065 11.9544 0.0936144 14.7126 0.0318323 17.6516C-0.149101 26.9013 6.68224 34.6505 15.6362 35.8421C15.6186 35.7803 15.6009 35.7185 15.5921 35.6523C15.5347 35.3301 15.6009 35.0521 15.6495 34.8624H15.6539Z" fill="#00AC6C"/>
<path d="M14.07 23.3841C14.1009 23.4592 14.1495 23.5474 14.2024 23.6489C14.2819 23.7946 14.3745 23.9578 14.454 24.152C14.5731 24.4653 14.551 24.761 14.5378 24.9596C14.5378 24.9905 14.5334 25.0302 14.5334 25.0567L14.6261 25.295C14.6834 25.445 14.7452 25.5995 14.8026 25.7628C14.8291 25.829 14.8732 25.9216 14.9217 26.0187C14.9923 26.1643 15.0762 26.3276 15.1424 26.5218C15.138 26.5086 15.1336 26.5041 15.1336 26.5041C15.1468 26.5262 15.1953 26.5924 15.2262 26.6409C15.3366 26.791 15.4822 26.994 15.5705 27.2632C15.6013 27.3603 15.6455 27.4662 15.6852 27.5809C15.7426 27.731 15.8043 27.8854 15.8573 28.0575C15.9411 28.3355 15.9323 28.5959 15.9279 28.7901C15.9235 28.843 15.9235 28.9136 15.9235 28.949C15.95 29.0328 15.9853 29.1255 16.0206 29.227C16.0735 29.3682 16.1353 29.5271 16.1839 29.6992L16.3471 30.3126L16.3913 30.4891C16.4089 30.5597 16.4442 30.6524 16.4884 30.7539C16.5457 30.9039 16.6163 31.0716 16.6649 31.2702C16.709 31.4467 16.7311 31.6188 16.7576 31.7689C16.7752 31.8836 16.7884 31.9983 16.8105 32.0866C16.859 32.3028 16.8679 32.5058 16.8767 32.6735C16.8767 32.7706 16.8855 32.8677 16.8988 32.9251C16.9208 33.0222 16.9517 33.1281 16.987 33.2384C17.0312 33.3796 17.0797 33.5385 17.115 33.7106C17.1238 33.7371 17.1591 33.7944 17.1812 33.8386C17.2695 33.993 17.393 34.2093 17.4504 34.4873C17.5166 34.8094 17.446 35.0963 17.3974 35.286C17.3886 35.3125 17.3842 35.3434 17.3754 35.3743C17.393 35.4317 17.4107 35.5023 17.4372 35.5773C17.4813 35.7009 17.521 35.8377 17.5563 35.9921C17.6004 35.9921 17.6402 35.9965 17.6843 35.9965C23.0064 36.1024 27.8342 33.8827 31.1969 30.2773C24.9481 25.4759 17.2783 23.7946 14.0215 23.2694C14.0391 23.3091 14.0568 23.3444 14.0744 23.3841H14.07Z" fill="#005BAA"/>
<path d="M35.9313 18.3578C35.9578 16.9897 35.8254 15.657 35.5606 14.3728C35.4503 14.3905 35.3356 14.4081 35.2253 14.4302C34.9163 14.4875 34.6427 14.6861 34.3515 14.7435C34.0514 14.8053 33.7645 14.898 33.4733 14.9641C33.1555 15.0392 32.8334 15.048 32.5289 15.1274C32.22 15.2069 31.889 15.1804 31.5933 15.2642C31.2933 15.3525 31.0417 15.5864 30.7593 15.6746C30.446 15.7761 30.115 15.7982 29.8193 15.9041C29.5148 16.01 29.175 15.9968 28.8882 16.1071C28.6013 16.2219 28.363 16.4557 28.0938 16.5705C27.7937 16.6985 27.4628 16.7338 27.1892 16.8662C26.8847 17.0118 26.6596 17.2854 26.386 17.4354C26.0991 17.5855 25.8167 17.709 25.5563 17.8591C25.2739 18.0224 24.965 18.1283 24.7135 18.2871C24.4354 18.4637 24.2413 18.7373 24.003 18.9094C23.7249 19.108 23.5175 19.3595 23.2836 19.5449C23.0144 19.7611 22.6879 19.8626 22.4805 20.0568C22.2687 20.2465 22.0392 20.3833 21.8627 20.5245L21.4611 21.1733C21.3772 21.4778 21.3772 21.7028 21.2492 21.5131L20.3799 22.9076C24.025 24.0241 28.3939 25.8643 32.2774 28.8872C34.5059 25.957 35.8651 22.3162 35.9402 18.3533L35.9313 18.3578Z" fill="#FAA61A"/>
</g>
<defs>
<clipPath id="clip0_5980_22669">
<rect width="113.935" height="40" fill="white" transform="translate(0.0322266)"/>
</clipPath>
</defs>
</svg>
