<svg width="116" height="28" viewBox="0 0 116 28" fill="none" xmlns="http://www.w3.org/2000/svg">
<path d="M14.0949 6.47144L2.35742 14L14.0949 21.5385V17.0529L9.4908 14L14.0949 10.957V6.47144Z" fill="#3B58A1"/>
<path d="M14.7178 21.5385L26.4552 14L14.7178 6.47144V10.957L19.3219 14L14.7178 17.0529V21.5385Z" fill="#3B58A1"/>
<path d="M14.4014 0C6.67518 0 0.401367 6.27382 0.401367 14C0.401367 21.7262 6.67518 28 14.4014 28C22.1276 28 28.4014 21.7262 28.4014 14C28.4014 6.27382 22.1374 0 14.4014 0ZM24.3802 16.3119C24.3802 16.3119 23.2045 25.283 14.4014 26.2117C14.4014 26.2117 9.64907 26.8045 5.99346 23.6627L8.16707 21.1235C8.16707 21.1235 5.79586 18.4164 5.31174 16.7269L1.19177 14L4.43242 11.6881C4.43242 11.6881 5.59826 2.71701 14.4014 1.79817C14.4014 1.79817 19.1537 1.20536 22.8093 4.34721L20.6357 6.88638C20.6357 6.88638 23.0069 9.59351 23.491 11.283L27.611 14.0099L24.3703 16.3218L24.3802 16.3119Z" fill="#3B58A1"/>
<path d="M112.623 8.45099V10.0475H104.051V8.45099H107.322V6.9165H109.368V8.45099H112.623ZM106.748 13.287C106.748 14.031 107.399 14.434 108.345 14.434C109.306 14.434 109.941 14.031 109.941 13.287C109.941 12.5585 109.306 12.1555 108.345 12.1555C107.399 12.1555 106.748 12.5585 106.748 13.287ZM109.368 15.8755V17.007C110.53 16.9295 111.693 16.852 112.809 16.697L112.964 18.185C109.848 18.7585 106.547 18.774 104.02 18.774L103.772 17.1155C104.842 17.1155 106.051 17.1155 107.322 17.0845V15.8755C105.787 15.581 104.795 14.62 104.795 13.287C104.795 11.6905 106.252 10.6055 108.345 10.6055C110.422 10.6055 111.879 11.6905 111.879 13.287C111.879 14.62 110.887 15.581 109.368 15.8755ZM113.553 6.87H115.599V21.1455H113.553V6.87Z" fill="black"/>
<path d="M94.6906 7.97049V10.0475C94.6906 12.6205 95.6981 15.209 97.9921 16.3405L96.7521 17.9525C95.2641 17.193 94.2566 15.8135 93.6676 14.1085C93.0476 15.922 91.9781 17.4255 90.3661 18.216L89.1416 16.5575C91.5441 15.426 92.6291 12.698 92.6291 10.0475V7.97049H94.6906ZM102.689 12.357V14.062H100.612V21.1455H98.5656V6.87H100.612V12.357H102.689Z" fill="black"/>
<path d="M84.5552 11.7215V9.1795H78.6807V11.7215H84.5552ZM86.5547 7.5675V13.3335H76.6657V7.5675H86.5547ZM88.1047 14.8525V16.48H82.6177V21.1455H80.5717V16.48H75.1777V14.8525H88.1047Z" fill="black"/>
<path d="M65.4758 8.10999V10.435C65.4758 12.7445 66.0958 15.116 68.0333 16.4025L66.9173 17.9835C65.7083 17.2395 64.9488 16.0305 64.4993 14.589C64.0033 16.17 63.1663 17.534 61.8798 18.309L60.6553 16.7745C62.7478 15.5035 63.5073 12.946 63.5073 10.5125V8.10999H65.4758ZM68.3278 11.6905V7.10249H70.2343V20.51H68.3278V13.349H66.5298V11.6905H68.3278ZM71.2263 6.87H73.1638V21.1455H71.2263V6.87Z" fill="black"/>
<path d="M59.5872 14.031H54.1312V16.046H58.0992V21.1455H56.0377V17.658H47.9622V16.046H52.0852V14.031H46.6602V12.4035H55.7432C56.0067 11.1015 56.0532 10.063 56.0532 9.11749H48.2567V7.47449H58.0682V8.62149C58.0682 9.69099 58.0682 10.8845 57.7892 12.4035H59.5872V14.031Z" fill="black"/>
<path d="M40.8179 8.37349L40.8024 9.96999H32.4014V8.37349H35.5634V6.85449H37.6249V8.37349H40.8179ZM35.0519 13.225C35.0519 14.0155 35.6874 14.434 36.6019 14.434C37.5009 14.434 38.1519 14.0155 38.1519 13.225C38.1519 12.45 37.5009 12.0315 36.6019 12.0315C35.6874 12.0315 35.0519 12.45 35.0519 13.225ZM40.1049 13.225C40.1049 14.868 38.6479 15.984 36.6019 15.984C34.5559 15.984 33.0989 14.868 33.0989 13.225C33.0989 11.613 34.5559 10.4815 36.6019 10.4815C38.6479 10.4815 40.1049 11.613 40.1049 13.225ZM36.4779 16.759V19.27H44.1504V20.8975H34.4319V16.759H36.4779ZM43.6389 11.2255H45.5299V12.915H43.6389V17.5495H41.5929V6.86999H43.6389V11.2255Z" fill="black"/>
</svg>
