<svg width="96" height="37" viewBox="0 0 96 37" fill="none" xmlns="http://www.w3.org/2000/svg">
<g clip-path="url(#clip0_5980_22608)">
<path d="M47.6855 18.7986H61.7594V20.3877H47.6855V18.7986ZM48.6477 21.4622H60.6274V26.7404H58.722V23.0513H48.6477V21.4622ZM48.8213 17.7731V11.7247H60.6123V13.28H50.6739V14.0652H60.6123V15.4852H50.6739V16.2892H60.6463V17.7768H48.8213V17.7731Z" fill="#575756"/>
<path d="M74.6931 13.5092V15.1321H64.9961V13.5092H68.89V11.7135H70.969V13.5092H74.6931ZM73.9045 19.8468C73.9045 20.3727 73.7988 20.8573 73.5875 21.3006C73.3762 21.7439 73.0933 22.1459 72.7386 22.4953C72.3839 22.8371 71.9651 23.1076 71.4746 23.3067C70.9878 23.5058 70.4747 23.6035 69.9389 23.6035C69.4031 23.6035 68.8862 23.5021 68.4032 23.3067C67.9165 23.1076 67.4977 22.8371 67.143 22.4953C66.777 22.1421 66.4865 21.7439 66.2752 21.3006C66.0639 20.8573 65.9582 20.3727 65.9582 19.8468C65.9582 19.3208 66.0639 18.855 66.2752 18.4042C66.4865 17.9534 66.777 17.5514 67.143 17.1983C67.4977 16.8564 67.9165 16.5859 68.4032 16.3868C68.89 16.1877 69.3994 16.0863 69.9389 16.0863C70.4785 16.0863 70.9878 16.1877 71.4746 16.3868C71.9613 16.5859 72.3801 16.8564 72.7386 17.1983C73.0933 17.5514 73.3762 17.9534 73.5875 18.4042C73.7988 18.855 73.9045 19.3359 73.9045 19.8468ZM72.1009 19.8468C72.1009 19.257 71.8896 18.7498 71.467 18.3366C71.0407 17.9196 70.5313 17.7129 69.9389 17.7129C69.3465 17.7129 68.8334 17.9196 68.4108 18.3366C67.9882 18.7498 67.7731 19.257 67.7731 19.8468C67.7731 20.4366 67.9844 20.9588 68.4108 21.3682C68.8334 21.7777 69.3428 21.9843 69.9389 21.9843C70.5351 21.9843 71.0407 21.7777 71.467 21.3682C71.8896 20.9588 72.1009 20.4516 72.1009 19.8468ZM76.6853 11.473H78.5907V26.7141H76.6853V19.5725H74.727V17.7956H76.6853V11.4768V11.473Z" fill="#575756"/>
<path d="M82.4785 14.3319V12.7428H86.0668V11.2889H88.0929V12.7428H91.5076V14.3319H87.7835L91.6435 18.2276L90.4097 19.3884L87.0817 15.936L83.7878 19.6627L82.52 18.4831L86.3988 14.3319H82.4861H82.4785ZM94.6997 23.4758C94.6997 23.9904 94.5941 24.4713 94.3828 24.9221C94.1715 25.3692 93.8885 25.7674 93.5338 26.1092C93.1791 26.4511 92.7603 26.7216 92.2736 26.9207C91.7869 27.1198 91.2699 27.2175 90.7191 27.2175C90.1682 27.2175 89.6663 27.116 89.1758 26.9207C88.6816 26.7216 88.2627 26.4511 87.9043 26.1092C87.5496 25.7674 87.2666 25.3729 87.0553 24.9221C86.844 24.4713 86.7384 23.9904 86.7384 23.4758C86.7384 22.9611 86.844 22.4802 87.0553 22.0332C87.2666 21.5824 87.5496 21.1879 87.9043 20.8461C88.259 20.5042 88.6816 20.2337 89.1758 20.0346C89.6701 19.8355 90.1833 19.7378 90.7191 19.7378C91.2548 19.7378 91.7869 19.8355 92.2736 20.0346C92.7603 20.2337 93.1791 20.5042 93.5338 20.8461C93.8885 21.1879 94.1715 21.5824 94.3828 22.0332C94.5941 22.4802 94.6997 22.9648 94.6997 23.4758ZM92.8282 23.4607C92.8282 22.8935 92.6207 22.4013 92.2019 21.9919C91.7831 21.5824 91.2813 21.3758 90.7002 21.3758C90.1191 21.3758 89.6362 21.5824 89.2249 21.9919C88.8136 22.4013 88.6061 22.8935 88.6061 23.4607C88.6061 24.028 88.8136 24.5352 89.2249 24.9371C89.6362 25.3391 90.1304 25.542 90.7002 25.542C91.2699 25.542 91.7831 25.3391 92.2019 24.9371C92.6169 24.5314 92.8282 24.0393 92.8282 23.4607ZM94.0998 19.5988V16.6949H91.4209V15.072H94.0998V11.4843H96.0052V19.5988H94.0998Z" fill="#575756"/>
<path d="M28.691 17.6566C25.4649 15.474 21.3296 16.3643 19.16 19.6477C17.3451 22.3901 14.6096 22.732 13.5493 22.732C10.0969 22.732 7.73494 20.3126 7.03313 17.8106C7.02559 17.7843 7.02181 17.7656 7.01427 17.743C7.00672 17.713 6.99918 17.6867 6.99163 17.6566C6.71619 16.6122 6.64827 16.1126 6.64827 15.0044C6.64827 9.0199 12.8136 2.35547 21.6956 2.35547C30.5775 2.35547 35.992 9.24906 37.3352 13.0809C37.3126 13.0133 37.2899 12.9457 37.2673 12.8781C34.6865 5.38715 27.5515 0 19.1487 0C8.57635 0 0 8.53528 0 19.0654C0 28.4797 6.81807 36.5342 16.2773 36.5342C23.8198 36.5342 28.8909 32.3229 31.2152 26.5187C32.4905 23.3443 31.585 19.6139 28.691 17.6529V17.6566Z" fill="#003863"/>
<path d="M37.4563 13.4566C36.3394 9.71868 31.0947 2.35925 21.6996 2.35925C12.8177 2.35925 6.65234 9.02369 6.65234 15.0082C6.65234 16.1164 6.72026 16.616 6.9957 17.6604C6.88251 17.2021 6.81836 16.7438 6.81836 16.3005C6.81836 10.0681 13.0855 5.75158 19.5263 5.75158C28.246 5.75158 35.3169 12.7917 35.3169 21.4735C35.3169 28.2807 31.3853 34.1712 25.6652 37C33.0341 34.3478 38.2939 27.3227 38.2939 19.0692C38.2939 17.1157 38.0298 15.3951 37.4525 13.4566H37.4563Z" fill="#E4032E"/>
</g>
<defs>
<clipPath id="clip0_5980_22608">
<rect width="96" height="37" fill="white"/>
</clipPath>
</defs>
</svg>
