<svg width="56" height="68" viewBox="0 0 56 68" fill="none" xmlns="http://www.w3.org/2000/svg">
<g clip-path="url(#clip0_5980_22729)">
<path d="M21.0217 25.3405C24.9171 25.3405 27.7195 22.8151 28.849 20.8252C29.1726 20.2166 30.5159 18.2267 33.5198 18.2267C36.4199 18.1902 38.9903 20.4661 38.8133 23.4966C38.5935 27.4339 35.1439 30.2636 33.5686 31.1703C30.9371 32.6734 27.5913 33.9452 24.624 34.1582H24.6362C24.8377 34.1582 25.0392 34.1582 25.2407 34.1582C26.535 34.1582 27.7867 34.1826 29.0017 34.2312C33.3244 33.8661 36.6763 32.1683 39.2407 29.5577C42.4583 26.2837 44.235 21.9753 44.235 17.3322C44.2228 8.17975 37.0366 0.5 27.9821 0.5C20.228 0.5 12.1504 6.59755 12.1504 16.3159C12.1504 21.1599 16.1312 25.3405 21.0217 25.3405Z" fill="#8DC63F"/>
<path opacity="0.3" d="M36.2605 2.85507C35.7415 2.61165 26.9251 -1.72722 19.2993 4.81456C11.8505 11.1981 13.0472 21.2694 16.3137 23.9226C17.6813 24.8111 19.2932 25.3345 21.021 25.3345C24.9164 25.3345 27.7188 22.809 28.8483 20.8191C29.1719 20.2106 30.5151 18.2206 33.5191 18.2206C36.4192 18.1841 38.9896 20.4601 38.8126 23.4906C38.5928 27.4278 35.1431 30.2575 33.5679 31.1642C30.9364 32.6673 27.5906 33.9392 24.6233 34.1522H24.6355C24.837 34.1522 25.0385 34.1522 25.24 34.1522C26.5343 34.1522 27.786 34.1765 29.001 34.2252C33.3237 33.8601 36.6756 32.1622 39.24 29.5516C42.4576 26.2777 44.2343 21.9692 44.2343 17.3261C44.2343 11.2468 41.0594 5.81256 36.2727 2.84898L36.2605 2.85507Z" fill="#0E8537"/>
<path d="M40.5155 6.65236C40.4118 6.52457 40.308 6.39678 40.2042 6.26898C38.2565 3.90177 34.9168 2.11267 30.1117 2.11267C23.0049 2.11267 15.5927 7.43129 15.1348 17.0827C14.9089 21.7806 17.9678 24.7807 21.4052 25.3345C22.4248 25.2919 23.3712 25.0728 24.226 24.7381C24.7327 24.5373 25.2029 24.3 25.6486 24.0383C27.1444 23.1376 28.2434 21.9023 28.854 20.8252C29.1776 20.2167 30.5208 18.2267 33.5247 18.2267C36.4248 18.1902 38.9953 20.4662 38.8182 23.4967C38.5984 27.4339 35.1488 30.2636 33.5735 31.1703C30.9421 32.6734 27.5962 33.9453 24.6289 34.1583H24.6411C24.8426 34.1583 25.0441 34.1583 25.2456 34.1583C26.54 34.1583 27.7916 34.1826 29.0066 34.2313C33.3293 33.8662 36.6813 32.1683 39.2456 29.5577C42.4632 26.2838 44.2399 21.9753 44.2399 17.3322C44.2399 13.3158 42.854 9.57943 40.5339 6.65236H40.5155Z" fill="#EF3F6B"/>
<path opacity="0.3" d="M41.4077 7.88759C40.2049 6.26888 37.6345 5.27088 35.8639 5.01529C29.7705 4.12682 25.167 6.18368 21.3937 11.0581C18.9759 14.186 18.4753 17.7276 19.4155 20.7642C20.5634 24.4642 24.184 24.525 25.6493 24.0382C27.1452 23.1375 28.2441 21.9022 28.8547 20.8251C29.1783 20.2166 30.5215 18.2266 33.5254 18.2266C36.4256 18.1901 38.996 20.4661 38.8189 23.4966C38.5991 27.4338 35.1495 30.2635 33.5743 31.1702C30.9428 32.6733 27.597 33.9452 24.6297 34.1582H24.6419C24.8434 34.1582 25.0448 34.1582 25.2463 34.1582C26.5407 34.1582 27.7923 34.1825 29.0073 34.2312C33.3301 33.8661 36.682 32.1682 39.2463 29.5576C42.4639 26.2837 44.2407 21.9752 44.2407 17.3321C44.2407 15.1596 43.8316 13.1819 43.2271 11.4901C43.105 11.1554 42.9707 10.8207 42.8425 10.5165C42.7448 10.2913 42.6471 10.0844 42.5494 9.87142C42.3541 9.46979 42.1526 9.08641 41.9511 8.73345C41.7801 8.42919 41.6092 8.14317 41.4321 7.88759H41.4077Z" fill="#C0151B"/>
<path d="M43.6484 12.9081C42.6532 9.97491 39.8507 7.20607 35.583 6.58536C30.2711 5.81251 26.2476 7.6077 22.9628 11.8553C20.8503 14.5876 20.4168 17.6729 21.235 20.3201C22.4255 24.1721 26.6811 23.4966 27.1634 22.8942C27.9022 22.2187 28.4761 21.4945 28.8547 20.8251C29.1783 20.2166 30.5215 18.2267 33.5254 18.2267C36.4255 18.1902 38.996 20.4661 38.8189 23.4966C38.5991 27.4339 35.1495 30.2636 33.5742 31.1703C30.9428 32.6734 27.5969 33.9452 24.6296 34.1582H24.6418C24.8433 34.1582 25.0448 34.1582 25.2463 34.1582C26.5407 34.1582 27.7923 34.1825 29.0073 34.2312C33.33 33.8661 36.682 32.1683 39.2463 29.5577C42.4639 26.2837 44.2406 21.9753 44.2406 17.3321C44.2406 15.8047 44.0025 14.046 43.6606 12.9081H43.6484Z" fill="#009DA5"/>
<path d="M38.8673 15.8838C33.8485 12.8533 30.1058 18.0076 28.9091 20.7156C29.6296 19.5472 31.0888 18.2328 33.5188 18.2328C36.4189 18.1962 38.9894 20.4722 38.8123 23.5027C38.5925 27.4399 35.1429 30.2696 33.5677 31.1764C30.9362 32.6794 27.5903 33.9513 24.623 34.1643H24.6353C24.8367 34.1643 25.0382 34.1643 25.2397 34.1643C26.5341 34.1643 27.7857 34.1886 29.0007 34.2373C33.3234 33.8722 36.6754 32.1744 39.2397 29.5637C39.3801 29.4238 39.5145 29.2777 39.6488 29.1317C41.0286 27.8294 45.565 19.9245 38.8734 15.8899L38.8673 15.8838Z" fill="#B62079"/>
<path opacity="0.2" d="M16.2108 21.7744C12.1873 19.9123 12.3826 13.8878 12.4071 13.3827C12.3704 13.5896 12.3399 13.7965 12.3094 14.0095C12.2972 14.0764 12.2911 14.1373 12.285 14.2042C12.2605 14.3746 12.2422 14.5511 12.2239 14.7215C12.2117 14.8493 12.2056 14.9771 12.1934 15.1109C12.1873 15.2387 12.1751 15.3665 12.169 15.4943C12.1567 15.7682 12.1445 16.0359 12.1445 16.3158C12.1445 21.1598 16.1253 25.3405 21.0159 25.3405C21.1441 25.3405 21.2662 25.3405 21.3944 25.3344C19.3063 24.9997 17.3587 23.7522 16.2047 21.7805L16.2108 21.7744Z" fill="#2E3192"/>
<path opacity="0.2" d="M22.2615 22.1213C21.1992 22.3221 19.9292 22.4012 18.4089 22.3099C17.5664 22.2552 16.8398 22.0665 16.2109 21.7744C17.3649 23.7461 19.3126 24.9936 21.4068 25.3283C21.4068 25.3283 21.4129 25.3283 21.419 25.3283C22.4325 25.2796 23.3727 25.0666 24.2214 24.738C24.7282 24.5372 25.2044 24.2998 25.644 24.0382C25.8272 23.9286 26.0103 23.8069 26.1813 23.6913C26.1813 23.6913 26.1935 23.6791 26.1996 23.6791C26.3583 23.5696 26.511 23.454 26.6636 23.3323C26.6819 23.3201 26.7125 23.2958 26.7308 23.2775C26.8529 23.1801 26.9628 23.0828 27.0849 22.9793C26.4866 23.4357 23.8917 23.813 22.2676 22.1274L22.2615 22.1213Z" fill="#2E3192"/>
<path opacity="0.2" d="M38.8685 15.8838C45.0412 19.608 41.6588 26.6245 40.0103 28.7057C40.0286 28.6813 40.053 28.657 40.0713 28.6326C40.2911 28.371 40.5048 28.1093 40.7063 27.8476C40.7063 27.8476 40.7063 27.8415 40.7185 27.8355C41.268 27.0565 42.7822 24.6102 43.2523 20.5878C44.0216 14.0095 38.5449 10.3522 32.9462 12.4334C28.5929 14.0521 27.4268 18.0928 27.4268 18.0928C26.9811 19.5107 25.7599 21.4702 22.2676 22.1274C23.8917 23.813 26.4926 23.4357 27.0848 22.9793C27.0971 22.9672 27.1581 22.9124 27.1764 22.9002C27.2619 22.8211 27.4329 22.6507 27.4451 22.6446C27.6771 22.4195 27.8908 22.1821 28.0801 21.9448C28.1289 21.884 28.1777 21.8231 28.2266 21.7623C28.2693 21.7136 28.306 21.6649 28.3365 21.6162C28.3731 21.5675 28.4342 21.4823 28.4952 21.391C28.5624 21.2937 28.6234 21.2024 28.6295 21.1902C28.7089 21.0685 28.7822 20.9468 28.8493 20.8251C28.8677 20.7947 28.8921 20.7521 28.9165 20.7095C30.1071 18.0076 33.8498 12.8533 38.8746 15.8777L38.8685 15.8838Z" fill="#2E3192"/>
<path opacity="0.2" d="M35.7412 17.174C31.1743 16.3098 29.2144 20.0767 28.9458 20.6426C28.9336 20.667 28.9213 20.6913 28.9091 20.7157C29.6296 19.5473 31.0888 18.2328 33.5188 18.2328C36.4189 18.1963 38.9894 20.4722 38.8123 23.5028C38.5925 27.44 35.1429 30.2697 33.5677 31.1764C30.9362 32.6795 27.5903 33.9514 24.623 34.1643H24.6353C24.8367 34.1643 25.0382 34.1643 25.2397 34.1643C25.7953 34.1643 26.3387 34.1704 26.876 34.1826C28.6588 33.8236 32.4381 32.8803 35.5031 30.8417C42.0238 26.4968 40.6806 18.1111 35.7473 17.174H35.7412Z" fill="#262262"/>
<path d="M30.7963 38.6067C20.6367 36.7385 10.7091 36.5742 10.7091 36.5742C10.7091 36.5742 19.2752 35.5701 31.8099 37.5417C38.0375 38.5276 42.4884 39.9941 44.7719 40.8704C50.8652 38.9596 56 38.7831 56 38.7831C53.0938 37.8034 42.3785 34.1948 25.2342 34.1583C9.51854 34.1278 0 37.9129 0 37.9129C0 37.9129 9.71391 39.3187 18.4448 43.8097C24.9717 47.1627 28.1893 50.6192 28.1893 50.6192C28.1893 50.6192 29.2211 49.2013 32.1212 47.1505C30.6864 45.9274 28.403 44.3026 25.0877 42.7812C17.8892 39.4769 7.06411 37.9555 7.06411 37.9555C7.06411 37.9555 17.6145 38.3207 25.3624 40.7913C30.6925 42.4891 33.7636 44.0653 35.3816 45.0754C36.7065 44.3087 38.2451 43.5054 40.0279 42.69C40.5408 42.4587 41.0475 42.2396 41.5604 42.0327C39.8692 41.0895 36.5661 39.6716 30.7963 38.6128V38.6067Z" fill="#B62079"/>
<path d="M55.5542 38.637C55.5542 38.637 31.4373 34.1034 10.709 36.5741C10.709 36.5741 19.2751 35.57 31.8097 37.5417C38.0374 38.5275 42.4883 39.9941 44.7718 40.8704C49.3082 39.4464 53.3134 38.99 55.0596 38.8439C55.658 38.7953 55.9999 38.7831 55.9999 38.7831C55.8655 38.7405 55.7129 38.6857 55.5542 38.637Z" fill="#009DA5"/>
<path d="M7.06445 37.9555C7.06445 37.9555 17.6148 38.3206 25.3628 40.7913C30.6929 42.4891 33.764 44.0652 35.3819 45.0754C36.7068 44.3086 38.2454 43.5054 40.0283 42.6899C40.5411 42.4587 41.0479 42.2396 41.5607 42.0327C41.5607 42.0327 21.1255 36.9636 7.06445 37.9616V37.9555Z" fill="#009DA5"/>
<path d="M18.4448 43.8157C24.9717 47.1687 28.1893 50.6252 28.1893 50.6252C28.1893 50.6252 29.2211 49.2073 32.1212 47.1565C32.1212 47.1565 16.3323 39.1908 0 37.9189C0 37.9189 9.71391 39.3247 18.4448 43.8157Z" fill="#009DA5"/>
<path opacity="0.2" d="M38.8673 15.8838C33.8485 12.8533 30.1058 18.0076 28.9091 20.7156C29.6296 19.5472 31.0888 18.2328 33.5188 18.2328C36.4189 18.1962 38.9894 20.4722 38.8123 23.5027C38.5925 27.4399 35.1429 30.2696 33.5677 31.1764C30.9362 32.6794 27.5903 33.9513 24.623 34.1643H24.6353C24.8367 34.1643 25.0382 34.1643 25.2397 34.1643C26.5341 34.1643 27.7857 34.1886 29.0007 34.2373C33.3234 33.8722 36.6754 32.1744 39.2397 29.5637C39.3801 29.4238 39.5145 29.2777 39.6488 29.1317C41.0286 27.8294 45.565 19.9245 38.8734 15.8899L38.8673 15.8838Z" fill="#2E3192"/>
<path d="M15.0559 61.9441C15.5016 61.8772 15.9229 61.7798 16.2892 61.652L16.3381 61.6338L16.1732 60.7697L16.1122 60.7818C15.7947 60.8488 15.3612 60.9035 14.83 60.934C14.8788 60.5567 14.9033 60.0881 14.9033 59.5465V57.2219H15.9717V56.1022H9.26175V57.2219H10.3424V59.4978C10.3424 60.082 10.3669 60.581 10.4157 60.9766H9.16406V62.0841H13.0472C13.7798 62.0841 14.4576 62.0415 15.0559 61.9502V61.9441ZM13.4563 57.2219V59.9481C13.4563 60.3619 13.4502 60.7088 13.4379 60.9766H11.8139C11.8017 60.7088 11.7955 60.3741 11.7955 59.9481V57.2219H13.4624H13.4563Z" fill="#4D4D4F"/>
<path d="M17.7614 57.6904H15.6855V58.7249H17.7614V59.3395H15.6855V60.368H17.7614V62.4553H19.2207V55.9622H17.7614V57.6904Z" fill="#4D4D4F"/>
<path d="M18.1156 63.2403C17.4806 62.7656 16.6014 62.5283 15.4963 62.5283C14.3912 62.5283 13.4998 62.7656 12.8648 63.2403C12.2604 63.6845 11.9551 64.2809 11.9551 65.0233C11.9551 65.7657 12.2604 66.3499 12.8648 66.7942C13.4937 67.2688 14.379 67.5062 15.4963 67.5062C16.6136 67.5062 17.4806 67.2688 18.1156 66.7942C18.7261 66.3499 19.0375 65.7536 19.0375 65.0233C19.0375 64.2931 18.7261 63.6845 18.1156 63.2403ZM16.9555 66.0213C16.5892 66.2769 16.1007 66.4108 15.5024 66.4108C14.9041 66.4108 14.4095 66.283 14.0432 66.0213C13.6768 65.7657 13.4998 65.4371 13.4998 65.0233C13.4998 64.6095 13.6768 64.2687 14.0432 64.0132C14.4095 63.7576 14.9041 63.6237 15.5024 63.6237C16.1007 63.6237 16.5953 63.7515 16.9555 64.0132C17.3157 64.2687 17.4928 64.6034 17.4928 65.0294C17.4928 65.4554 17.3157 65.7718 16.9555 66.0335V66.0213Z" fill="#4D4D4F"/>
<path d="M27.7854 61.8832C28.4387 61.7372 28.921 61.5363 29.2141 61.2808V62.4187H30.6V59.5099H31.9677V62.437H33.3536V55.9561H31.9677V58.3537H30.6V55.9561H29.2141V59.6742C29.2141 60.2402 28.7928 60.5992 27.9319 60.7635C27.6144 60.8244 27.1626 60.8609 26.5765 60.8609C26.027 60.867 25.5996 60.8487 25.3126 60.8061C25.0501 60.7635 24.928 60.6175 24.928 60.3436V59.5343H27.7548V58.4511H24.928V57.2218H27.9075V56.1143H23.4688V60.6966C23.4688 61.1104 23.5481 61.4268 23.713 61.6337C23.8778 61.8467 24.1587 61.9745 24.5555 62.0293C24.8486 62.0597 25.1966 62.0779 25.5935 62.0779C26.4788 62.0779 27.2176 62.011 27.7915 61.8832H27.7854Z" fill="#4D4D4F"/>
<path d="M33.2629 63.1916C33.1469 63.0638 32.9454 62.9968 32.6646 62.9968H25.2891V64.153H31.5228C31.8098 64.153 31.9441 64.293 31.9441 64.5851V67.1653H33.4094V63.8123C33.4094 63.4897 33.3667 63.3133 33.2629 63.1916Z" fill="#4D4D4F"/>
<path d="M46.8718 55.9622H45.4004V67.1653H46.8718V55.9622Z" fill="#4D4D4F"/>
<path d="M40.8731 57.077V55.4401H39.3528V57.077C39.3528 58.3367 39.1391 59.4138 38.7178 60.284C38.266 61.209 37.5089 62.0427 36.471 62.7669L36.416 62.8034L37.3074 63.8379L37.3502 63.8135C37.9607 63.4667 38.5407 62.9738 39.078 62.347C39.6031 61.7445 39.9633 61.1542 40.1648 60.5883C40.3846 61.1421 40.7632 61.7263 41.3004 62.3226C41.8683 62.9433 42.43 63.4058 42.9795 63.6918L43.0283 63.7162L43.877 62.6269L43.822 62.5904C41.8683 61.2638 40.8792 59.4077 40.8792 57.0709L40.8731 57.077Z" fill="#4D4D4F"/>
</g>
<defs>
<clipPath id="clip0_5980_22729">
<rect width="56" height="67" fill="white" transform="translate(0 0.5)"/>
</clipPath>
</defs>
</svg>
