<svg width="80" height="75" viewBox="0 0 80 75" fill="none" xmlns="http://www.w3.org/2000/svg">
<path d="M58.3867 4.98741V40.874H65.7841V2.35583C63.8883 3.59644 61.323 4.52689 58.3867 4.98741Z" fill="#00A0B0"/>
<path d="M54.1903 5.31327C51.7381 5.31327 49.4275 4.99372 47.3809 4.42981V40.874H54.7782V5.30387C54.5833 5.31014 54.3852 5.31327 54.1903 5.31327Z" fill="#007D9B"/>
<path d="M14.3613 2.32458V40.8741H21.7555V4.98123C18.8161 4.51443 16.2507 3.57458 14.3613 2.32458Z" fill="#00A0B0"/>
<path d="M40.091 0C39.2924 1.17168 38.0129 2.21491 36.375 3.06078V40.8866L40.0501 42.406L43.7692 40.8772V3.03885C42.1533 2.19612 40.8801 1.16228 40.0878 0H40.091Z" fill="#004F72"/>
<path d="M25.9991 5.31331C25.7885 5.31331 25.5747 5.30704 25.3672 5.30391V40.8741H32.7645V4.44238C30.7305 4.99689 28.4355 5.31331 25.9991 5.31331Z" fill="#007D9B"/>
<path d="M38.2888 52.3074H36.1573V54.632H31.8001V52.2823H24.9277V54.4095H29.6654L29.6717 59.1025H25.9463V65.5718H39.0936V59.1025H38.292V52.3043L38.2888 52.3074ZM31.8001 56.7592H36.1573V59.1025H31.8001V56.7592ZM28.0778 63.4446V61.2266H36.959V63.4446H28.0778Z" fill="#202020"/>
<path d="M43.231 63.5198V62.6269H54.3223V57.9841H53.4577V56.4208H55.1302V54.2936H53.4577V52.3387H51.3231V57.9841H49.0816L50.0656 56.355L47.2205 54.7353H49.8172V52.605H46.3025V51.2266H44.1647V52.605H40.8637V54.7353H43.3096L40.5273 56.3957L41.6654 58.1971L45.2462 55.9509L48.6289 57.9841H42.3539V59.8763H51.9519V60.7598H40.8637V65.5906H55.1963V63.5198H43.231Z" fill="#202020"/>
<path d="M0 74.9175V69.8893H1.89885C2.79483 69.8893 3.24125 70.3905 3.24125 71.393C3.24125 72.3955 2.77282 72.8686 1.83597 72.8686H1.05317V74.9175H0ZM1.05317 70.6631V72.0979H1.64106C1.7951 72.0979 1.924 72.0259 2.0246 71.8818C2.12206 71.7533 2.17236 71.5998 2.17236 71.4212C2.17236 70.9137 1.97744 70.6631 1.58447 70.6631H1.05317Z" fill="#202020"/>
<path d="M5.60905 72.8373V74.9207H4.55273V69.8925H6.50188C6.86971 69.8925 7.15894 70.0052 7.36643 70.2339C7.57706 70.4626 7.6808 70.7884 7.6808 71.2145C7.6808 71.9382 7.36957 72.3517 6.74396 72.4551C7.35385 72.5303 7.6588 72.8592 7.6588 73.4451C7.6588 74.2628 7.69652 74.7546 7.77826 74.9207H6.74396C6.68422 74.7922 6.64964 74.6293 6.64021 74.4413C6.63707 74.4037 6.63392 74.2408 6.63392 73.9463C6.63392 73.5422 6.61192 73.2822 6.56476 73.1663C6.4673 72.947 6.23781 72.8405 5.87941 72.8405H5.6059L5.60905 72.8373ZM5.60905 70.6663V72.0666H6.07747C6.26924 72.0666 6.41071 71.9821 6.50503 71.816C6.58048 71.6876 6.6182 71.5247 6.6182 71.3273C6.6182 70.8856 6.43901 70.6663 6.08062 70.6663H5.61219H5.60905Z" fill="#202020"/>
<path d="M10.8498 75.0021C10.0765 75.0021 9.56718 74.7327 9.32825 74.1938C9.18364 73.8743 9.11133 73.2759 9.11133 72.405C9.11133 71.534 9.18364 70.9294 9.32825 70.6099C9.57032 70.0773 10.0765 69.8079 10.8498 69.8079C11.6232 69.8079 12.1294 70.0742 12.3746 70.6099C12.5192 70.9294 12.5915 71.5278 12.5915 72.405C12.5915 73.2822 12.5192 73.8743 12.3746 74.1938C12.1325 74.7327 11.6264 75.0021 10.8498 75.0021ZM10.8498 74.2502C11.1296 74.2502 11.3151 74.103 11.4094 73.8116C11.4849 73.5704 11.5195 73.1005 11.5195 72.405C11.5195 71.7095 11.4817 71.2396 11.4094 70.9983C11.3151 70.707 11.1296 70.5597 10.8498 70.5597C10.57 70.5597 10.3846 70.707 10.2902 70.9983C10.2148 71.2396 10.1771 71.7095 10.1771 72.405C10.1771 73.1005 10.2148 73.5704 10.2902 73.8116C10.3846 74.103 10.57 74.2502 10.8498 74.2502Z" fill="#202020"/>
<path d="M17.2601 73.5453C17.2601 74.1249 17.0652 74.5321 16.6817 74.764C16.4113 74.9206 16.0183 74.9989 15.5027 74.9989C14.4999 74.9989 14 74.5259 14 73.5798C14 73.5108 14 73.4388 14.0063 73.3636H15.0626C15.0626 73.6643 15.0909 73.8711 15.1475 73.9839C15.2324 74.1593 15.4021 74.247 15.6631 74.247C16.0152 74.247 16.1944 74.0559 16.1944 73.6769C16.1944 73.4356 16.012 73.1975 15.6411 72.9657C14.9809 72.5522 14.6382 72.336 14.6193 72.3172C14.2515 72.0102 14.066 71.6437 14.066 71.2176C14.066 70.2746 14.6193 69.8047 15.7291 69.8047C16.7728 69.8047 17.2601 70.3091 17.1972 71.3147H16.1692C16.1692 70.8072 16.0057 70.5566 15.6788 70.5566C15.3141 70.5566 15.1349 70.7351 15.1349 71.0923C15.1349 71.3492 15.3172 71.5841 15.6882 71.8034C16.3453 72.195 16.6848 72.3987 16.7099 72.4175C17.0778 72.7182 17.2633 73.0942 17.2633 73.5453H17.2601Z" fill="#202020"/>
<path d="M21.5195 74.9175H18.709V69.8893H21.4629V70.6631H19.7653V71.9037H21.3309V72.6775H19.7653V74.1468H21.5195V74.9206V74.9175Z" fill="#202020"/>
<path d="M24.5932 75.0021C23.8198 75.0021 23.3106 74.7327 23.0685 74.1938C22.9239 73.8743 22.8516 73.2759 22.8516 72.405C22.8516 71.534 22.9239 70.9294 23.0685 70.6099C23.3106 70.0773 23.8198 69.8079 24.5932 69.8079C25.6118 69.8079 26.1022 70.3655 26.0614 71.4777H25.0271C25.0271 71.1424 24.9956 70.9075 24.9296 70.7665C24.8636 70.6287 24.7536 70.5566 24.5932 70.5566C24.3134 70.5566 24.1279 70.7038 24.0336 70.9952C23.9582 71.2364 23.9204 71.7064 23.9204 72.4018C23.9204 73.0973 23.9582 73.5673 24.0336 73.8085C24.1279 74.0998 24.3134 74.2471 24.5932 74.2471C24.8007 74.2471 24.9422 74.128 25.0113 73.8837C25.0396 73.7772 25.0616 73.5579 25.0742 73.2226H26.1148C26.1148 73.8743 25.9859 74.3379 25.7218 74.6168C25.4829 74.8705 25.1057 74.999 24.5901 74.999L24.5932 75.0021Z" fill="#202020"/>
<path d="M29.8415 69.8925H30.8979V73.4576C30.8979 73.89 30.7753 74.2408 30.5269 74.5103C30.2251 74.8392 29.7787 75.0052 29.1845 75.0052C28.5903 75.0052 28.1848 74.8674 27.8924 74.5886C27.6095 74.3254 27.4648 73.9495 27.4648 73.4608V69.8956H28.5212V73.3918C28.5212 73.9683 28.7381 74.2534 29.1719 74.2534C29.6058 74.2534 29.8415 73.9651 29.8415 73.3918V69.8956V69.8925Z" fill="#202020"/>
<path d="M32.0566 69.8925H35.4582V70.7289H34.2824V74.9207H33.2293V70.7289H32.0566V69.8925Z" fill="#202020"/>
<path d="M37.7028 74.9175H36.6465V69.8893H37.7028V74.9175Z" fill="#202020"/>
<path d="M40.9788 75.0021C40.2054 75.0021 39.6992 74.7327 39.4572 74.1938C39.3125 73.8743 39.2402 73.2759 39.2402 72.405C39.2402 71.534 39.3125 70.9294 39.4572 70.6099C39.6992 70.0773 40.2054 69.8079 40.9788 69.8079C41.7521 69.8079 42.2614 70.0742 42.5035 70.6099C42.6481 70.9294 42.7204 71.5278 42.7204 72.405C42.7204 73.2822 42.6481 73.8743 42.5035 74.1938C42.2614 74.7327 41.7553 75.0021 40.9788 75.0021ZM40.9788 74.2502C41.2585 74.2502 41.444 74.103 41.5383 73.8116C41.6138 73.5704 41.6484 73.1005 41.6484 72.405C41.6484 71.7095 41.6107 71.2396 41.5383 70.9983C41.444 70.707 41.2585 70.5597 40.9788 70.5597C40.699 70.5597 40.5135 70.707 40.4192 70.9983C40.3437 71.2396 40.306 71.7095 40.306 72.405C40.306 73.1005 40.3437 73.5704 40.4192 73.8116C40.5103 74.103 40.699 74.2502 40.9788 74.2502Z" fill="#202020"/>
<path d="M45.2414 74.9175H44.2637V69.8893H45.6972L47.0459 73.3699V69.8893H48.0236V74.9175H46.6278L45.2445 71.2395V74.9175H45.2414Z" fill="#202020"/>
<path d="M55.1539 73.5453C55.1539 74.1249 54.959 74.5321 54.5754 74.764C54.3051 74.9206 53.9121 74.9989 53.3934 74.9989C52.3905 74.9989 51.8906 74.5259 51.8906 73.5798C51.8906 73.5108 51.8906 73.4388 51.8969 73.3636H52.9532C52.9532 73.6643 52.9815 73.8711 53.0381 73.9839C53.123 74.1593 53.2959 74.247 53.5568 74.247C53.9121 74.247 54.0881 74.0559 54.0881 73.6769C54.0881 73.4356 53.9026 73.1975 53.5348 72.9657C52.8746 72.5522 52.532 72.336 52.5162 72.3172C52.1484 72.0102 51.9661 71.6437 51.9661 71.2176C51.9661 70.2746 52.5194 69.8047 53.6291 69.8047C54.6729 69.8047 55.1602 70.3091 55.0973 71.3147H54.0693C54.0693 70.8072 53.9058 70.5566 53.5788 70.5566C53.2142 70.5566 53.035 70.7351 53.035 71.0923C53.035 71.3492 53.2173 71.5841 53.5851 71.8034C54.2422 72.195 54.5817 72.3987 54.6037 72.4175C54.9715 72.7182 55.157 73.0942 55.157 73.5453H55.1539Z" fill="#202020"/>
<path d="M59.4148 74.9175H56.6074V69.8893H59.3582V70.6631H57.6606V71.9037H59.2262V72.6775H57.6606V74.1468H59.4148V74.9206V74.9175Z" fill="#202020"/>
<path d="M61.8317 72.8373V74.9207H60.7754V69.8925H62.7245C63.0924 69.8925 63.3816 70.0052 63.5922 70.2339C63.7997 70.4626 63.9066 70.7884 63.9066 71.2145C63.9066 71.9382 63.5954 72.3517 62.9698 72.4551C63.5796 72.5303 63.8846 72.8592 63.8846 73.4451C63.8846 74.2628 63.9255 74.7546 64.0041 74.9207H62.9698C62.91 74.7922 62.8754 74.6293 62.866 74.4413C62.8597 74.4037 62.8597 74.2408 62.8597 73.9463C62.8597 73.5422 62.8346 73.2822 62.7906 73.1663C62.6931 72.947 62.4636 72.8405 62.1052 72.8405H61.8317V72.8373ZM61.8317 70.6663V72.0666H62.3001C62.4919 72.0666 62.6334 71.9821 62.7245 71.816C62.8 71.6876 62.8377 71.5247 62.8377 71.3273C62.8377 70.8856 62.6585 70.6663 62.3001 70.6663H61.8317Z" fill="#202020"/>
<path d="M66.2215 74.9175L64.9766 69.8893H66.0737L66.8566 73.5453H66.8691L67.7494 69.8893H68.79L67.4539 74.9175H66.2184H66.2215Z" fill="#202020"/>
<path d="M71.0212 74.9175H69.9648V69.8893H71.0212V74.9175Z" fill="#202020"/>
<path d="M74.2963 75.0021C73.523 75.0021 73.0168 74.7327 72.7716 74.1938C72.627 73.8743 72.5547 73.2759 72.5547 72.405C72.5547 71.534 72.627 70.9294 72.7716 70.6099C73.0137 70.0773 73.523 69.8079 74.2963 69.8079C75.3181 69.8079 75.8054 70.3655 75.7645 71.4777H74.7302C74.7302 71.1424 74.6988 70.9075 74.6327 70.7665C74.5667 70.6287 74.4567 70.5566 74.2963 70.5566C74.0166 70.5566 73.8311 70.7038 73.7368 70.9952C73.6613 71.2364 73.6236 71.7064 73.6236 72.4018C73.6236 73.0973 73.6613 73.5673 73.7368 73.8085C73.8279 74.0998 74.0166 74.2471 74.2963 74.2471C74.507 74.2471 74.6453 74.128 74.7145 73.8837C74.7428 73.7772 74.7648 73.5579 74.7773 73.2226H75.8179C75.8179 73.8743 75.689 74.3379 75.4281 74.6168C75.1892 74.8705 74.8151 74.999 74.2963 74.999V75.0021Z" fill="#202020"/>
<path d="M80 74.9175H77.1895V69.8893H79.9434V70.6631H78.2458V71.9037H79.8114V72.6775H78.2458V74.1468H80V74.9206V74.9175Z" fill="#202020"/>
</svg>
